%TF.GenerationSoftware,KiCad,Pcbnew,9.0.2*%
%TF.CreationDate,2025-07-24T18:53:36+12:00*%
%TF.ProjectId,Overdrive,4f766572-6472-4697-9665-2e6b69636164,rev?*%
%TF.SameCoordinates,Original*%
%TF.FileFunction,Legend,Top*%
%TF.FilePolarity,Positive*%
%FSLAX46Y46*%
G04 Gerber Fmt 4.6, Leading zero omitted, Abs format (unit mm)*
G04 Created by KiCad (PCBNEW 9.0.2) date 2025-07-24 18:53:36*
%MOMM*%
%LPD*%
G01*
G04 APERTURE LIST*
G04 Aperture macros list*
%AMRoundRect*
0 Rectangle with rounded corners*
0 $1 Rounding radius*
0 $2 $3 $4 $5 $6 $7 $8 $9 X,Y pos of 4 corners*
0 Add a 4 corners polygon primitive as box body*
4,1,4,$2,$3,$4,$5,$6,$7,$8,$9,$2,$3,0*
0 Add four circle primitives for the rounded corners*
1,1,$1+$1,$2,$3*
1,1,$1+$1,$4,$5*
1,1,$1+$1,$6,$7*
1,1,$1+$1,$8,$9*
0 Add four rect primitives between the rounded corners*
20,1,$1+$1,$2,$3,$4,$5,0*
20,1,$1+$1,$4,$5,$6,$7,0*
20,1,$1+$1,$6,$7,$8,$9,0*
20,1,$1+$1,$8,$9,$2,$3,0*%
G04 Aperture macros list end*
%ADD10C,0.100000*%
%ADD11C,0.150000*%
%ADD12C,0.120000*%
%ADD13O,4.000000X3.000000*%
%ADD14RoundRect,0.250000X-0.550000X0.550000X-0.550000X-0.550000X0.550000X-0.550000X0.550000X0.550000X0*%
%ADD15C,1.600000*%
%ADD16RoundRect,0.200000X-0.200000X-0.275000X0.200000X-0.275000X0.200000X0.275000X-0.200000X0.275000X0*%
%ADD17R,1.800000X1.800000*%
%ADD18C,1.800000*%
%ADD19RoundRect,0.150000X-0.587500X-0.150000X0.587500X-0.150000X0.587500X0.150000X-0.587500X0.150000X0*%
%ADD20RoundRect,0.250000X-0.325000X-0.650000X0.325000X-0.650000X0.325000X0.650000X-0.325000X0.650000X0*%
%ADD21RoundRect,0.225000X-0.225000X-0.250000X0.225000X-0.250000X0.225000X0.250000X-0.225000X0.250000X0*%
%ADD22O,4.500000X3.000000*%
%ADD23RoundRect,0.225000X0.225000X0.250000X-0.225000X0.250000X-0.225000X-0.250000X0.225000X-0.250000X0*%
%ADD24C,0.800000*%
%ADD25C,6.400000*%
%ADD26RoundRect,0.225000X-0.225000X-0.375000X0.225000X-0.375000X0.225000X0.375000X-0.225000X0.375000X0*%
%ADD27RoundRect,0.750000X0.750000X-1.250000X0.750000X1.250000X-0.750000X1.250000X-0.750000X-1.250000X0*%
%ADD28RoundRect,0.200000X0.200000X0.275000X-0.200000X0.275000X-0.200000X-0.275000X0.200000X-0.275000X0*%
%ADD29R,2.500000X2.500000*%
%ADD30RoundRect,0.225000X0.225000X0.375000X-0.225000X0.375000X-0.225000X-0.375000X0.225000X-0.375000X0*%
%ADD31RoundRect,0.150000X-0.825000X-0.150000X0.825000X-0.150000X0.825000X0.150000X-0.825000X0.150000X0*%
%ADD32R,4.600000X2.000000*%
%ADD33O,4.200000X2.000000*%
%ADD34O,2.000000X4.200000*%
%ADD35C,3.000000*%
G04 APERTURE END LIST*
D10*
X165566667Y-75809800D02*
X165709524Y-75857419D01*
X165709524Y-75857419D02*
X165947619Y-75857419D01*
X165947619Y-75857419D02*
X166042857Y-75809800D01*
X166042857Y-75809800D02*
X166090476Y-75762180D01*
X166090476Y-75762180D02*
X166138095Y-75666942D01*
X166138095Y-75666942D02*
X166138095Y-75571704D01*
X166138095Y-75571704D02*
X166090476Y-75476466D01*
X166090476Y-75476466D02*
X166042857Y-75428847D01*
X166042857Y-75428847D02*
X165947619Y-75381228D01*
X165947619Y-75381228D02*
X165757143Y-75333609D01*
X165757143Y-75333609D02*
X165661905Y-75285990D01*
X165661905Y-75285990D02*
X165614286Y-75238371D01*
X165614286Y-75238371D02*
X165566667Y-75143133D01*
X165566667Y-75143133D02*
X165566667Y-75047895D01*
X165566667Y-75047895D02*
X165614286Y-74952657D01*
X165614286Y-74952657D02*
X165661905Y-74905038D01*
X165661905Y-74905038D02*
X165757143Y-74857419D01*
X165757143Y-74857419D02*
X165995238Y-74857419D01*
X165995238Y-74857419D02*
X166138095Y-74905038D01*
X166471429Y-74857419D02*
X166709524Y-75857419D01*
X166709524Y-75857419D02*
X166900000Y-75143133D01*
X166900000Y-75143133D02*
X167090476Y-75857419D01*
X167090476Y-75857419D02*
X167328572Y-74857419D01*
X168233333Y-75857419D02*
X167661905Y-75857419D01*
X167947619Y-75857419D02*
X167947619Y-74857419D01*
X167947619Y-74857419D02*
X167852381Y-75000276D01*
X167852381Y-75000276D02*
X167757143Y-75095514D01*
X167757143Y-75095514D02*
X167661905Y-75143133D01*
D11*
X137333333Y-93359580D02*
X137285714Y-93407200D01*
X137285714Y-93407200D02*
X137142857Y-93454819D01*
X137142857Y-93454819D02*
X137047619Y-93454819D01*
X137047619Y-93454819D02*
X136904762Y-93407200D01*
X136904762Y-93407200D02*
X136809524Y-93311961D01*
X136809524Y-93311961D02*
X136761905Y-93216723D01*
X136761905Y-93216723D02*
X136714286Y-93026247D01*
X136714286Y-93026247D02*
X136714286Y-92883390D01*
X136714286Y-92883390D02*
X136761905Y-92692914D01*
X136761905Y-92692914D02*
X136809524Y-92597676D01*
X136809524Y-92597676D02*
X136904762Y-92502438D01*
X136904762Y-92502438D02*
X137047619Y-92454819D01*
X137047619Y-92454819D02*
X137142857Y-92454819D01*
X137142857Y-92454819D02*
X137285714Y-92502438D01*
X137285714Y-92502438D02*
X137333333Y-92550057D01*
X137761905Y-93454819D02*
X137761905Y-92454819D01*
X137761905Y-92454819D02*
X138142857Y-92454819D01*
X138142857Y-92454819D02*
X138238095Y-92502438D01*
X138238095Y-92502438D02*
X138285714Y-92550057D01*
X138285714Y-92550057D02*
X138333333Y-92645295D01*
X138333333Y-92645295D02*
X138333333Y-92788152D01*
X138333333Y-92788152D02*
X138285714Y-92883390D01*
X138285714Y-92883390D02*
X138238095Y-92931009D01*
X138238095Y-92931009D02*
X138142857Y-92978628D01*
X138142857Y-92978628D02*
X137761905Y-92978628D01*
X138714286Y-92550057D02*
X138761905Y-92502438D01*
X138761905Y-92502438D02*
X138857143Y-92454819D01*
X138857143Y-92454819D02*
X139095238Y-92454819D01*
X139095238Y-92454819D02*
X139190476Y-92502438D01*
X139190476Y-92502438D02*
X139238095Y-92550057D01*
X139238095Y-92550057D02*
X139285714Y-92645295D01*
X139285714Y-92645295D02*
X139285714Y-92740533D01*
X139285714Y-92740533D02*
X139238095Y-92883390D01*
X139238095Y-92883390D02*
X138666667Y-93454819D01*
X138666667Y-93454819D02*
X139285714Y-93454819D01*
X130833333Y-93359580D02*
X130785714Y-93407200D01*
X130785714Y-93407200D02*
X130642857Y-93454819D01*
X130642857Y-93454819D02*
X130547619Y-93454819D01*
X130547619Y-93454819D02*
X130404762Y-93407200D01*
X130404762Y-93407200D02*
X130309524Y-93311961D01*
X130309524Y-93311961D02*
X130261905Y-93216723D01*
X130261905Y-93216723D02*
X130214286Y-93026247D01*
X130214286Y-93026247D02*
X130214286Y-92883390D01*
X130214286Y-92883390D02*
X130261905Y-92692914D01*
X130261905Y-92692914D02*
X130309524Y-92597676D01*
X130309524Y-92597676D02*
X130404762Y-92502438D01*
X130404762Y-92502438D02*
X130547619Y-92454819D01*
X130547619Y-92454819D02*
X130642857Y-92454819D01*
X130642857Y-92454819D02*
X130785714Y-92502438D01*
X130785714Y-92502438D02*
X130833333Y-92550057D01*
X131261905Y-93454819D02*
X131261905Y-92454819D01*
X131261905Y-92454819D02*
X131642857Y-92454819D01*
X131642857Y-92454819D02*
X131738095Y-92502438D01*
X131738095Y-92502438D02*
X131785714Y-92550057D01*
X131785714Y-92550057D02*
X131833333Y-92645295D01*
X131833333Y-92645295D02*
X131833333Y-92788152D01*
X131833333Y-92788152D02*
X131785714Y-92883390D01*
X131785714Y-92883390D02*
X131738095Y-92931009D01*
X131738095Y-92931009D02*
X131642857Y-92978628D01*
X131642857Y-92978628D02*
X131261905Y-92978628D01*
X132785714Y-93454819D02*
X132214286Y-93454819D01*
X132500000Y-93454819D02*
X132500000Y-92454819D01*
X132500000Y-92454819D02*
X132404762Y-92597676D01*
X132404762Y-92597676D02*
X132309524Y-92692914D01*
X132309524Y-92692914D02*
X132214286Y-92740533D01*
X140857142Y-73454819D02*
X140523809Y-72978628D01*
X140285714Y-73454819D02*
X140285714Y-72454819D01*
X140285714Y-72454819D02*
X140666666Y-72454819D01*
X140666666Y-72454819D02*
X140761904Y-72502438D01*
X140761904Y-72502438D02*
X140809523Y-72550057D01*
X140809523Y-72550057D02*
X140857142Y-72645295D01*
X140857142Y-72645295D02*
X140857142Y-72788152D01*
X140857142Y-72788152D02*
X140809523Y-72883390D01*
X140809523Y-72883390D02*
X140761904Y-72931009D01*
X140761904Y-72931009D02*
X140666666Y-72978628D01*
X140666666Y-72978628D02*
X140285714Y-72978628D01*
X141809523Y-73454819D02*
X141238095Y-73454819D01*
X141523809Y-73454819D02*
X141523809Y-72454819D01*
X141523809Y-72454819D02*
X141428571Y-72597676D01*
X141428571Y-72597676D02*
X141333333Y-72692914D01*
X141333333Y-72692914D02*
X141238095Y-72740533D01*
X142428571Y-72454819D02*
X142523809Y-72454819D01*
X142523809Y-72454819D02*
X142619047Y-72502438D01*
X142619047Y-72502438D02*
X142666666Y-72550057D01*
X142666666Y-72550057D02*
X142714285Y-72645295D01*
X142714285Y-72645295D02*
X142761904Y-72835771D01*
X142761904Y-72835771D02*
X142761904Y-73073866D01*
X142761904Y-73073866D02*
X142714285Y-73264342D01*
X142714285Y-73264342D02*
X142666666Y-73359580D01*
X142666666Y-73359580D02*
X142619047Y-73407200D01*
X142619047Y-73407200D02*
X142523809Y-73454819D01*
X142523809Y-73454819D02*
X142428571Y-73454819D01*
X142428571Y-73454819D02*
X142333333Y-73407200D01*
X142333333Y-73407200D02*
X142285714Y-73359580D01*
X142285714Y-73359580D02*
X142238095Y-73264342D01*
X142238095Y-73264342D02*
X142190476Y-73073866D01*
X142190476Y-73073866D02*
X142190476Y-72835771D01*
X142190476Y-72835771D02*
X142238095Y-72645295D01*
X142238095Y-72645295D02*
X142285714Y-72550057D01*
X142285714Y-72550057D02*
X142333333Y-72502438D01*
X142333333Y-72502438D02*
X142428571Y-72454819D01*
X122908333Y-73454819D02*
X122575000Y-72978628D01*
X122336905Y-73454819D02*
X122336905Y-72454819D01*
X122336905Y-72454819D02*
X122717857Y-72454819D01*
X122717857Y-72454819D02*
X122813095Y-72502438D01*
X122813095Y-72502438D02*
X122860714Y-72550057D01*
X122860714Y-72550057D02*
X122908333Y-72645295D01*
X122908333Y-72645295D02*
X122908333Y-72788152D01*
X122908333Y-72788152D02*
X122860714Y-72883390D01*
X122860714Y-72883390D02*
X122813095Y-72931009D01*
X122813095Y-72931009D02*
X122717857Y-72978628D01*
X122717857Y-72978628D02*
X122336905Y-72978628D01*
X123384524Y-73454819D02*
X123575000Y-73454819D01*
X123575000Y-73454819D02*
X123670238Y-73407200D01*
X123670238Y-73407200D02*
X123717857Y-73359580D01*
X123717857Y-73359580D02*
X123813095Y-73216723D01*
X123813095Y-73216723D02*
X123860714Y-73026247D01*
X123860714Y-73026247D02*
X123860714Y-72645295D01*
X123860714Y-72645295D02*
X123813095Y-72550057D01*
X123813095Y-72550057D02*
X123765476Y-72502438D01*
X123765476Y-72502438D02*
X123670238Y-72454819D01*
X123670238Y-72454819D02*
X123479762Y-72454819D01*
X123479762Y-72454819D02*
X123384524Y-72502438D01*
X123384524Y-72502438D02*
X123336905Y-72550057D01*
X123336905Y-72550057D02*
X123289286Y-72645295D01*
X123289286Y-72645295D02*
X123289286Y-72883390D01*
X123289286Y-72883390D02*
X123336905Y-72978628D01*
X123336905Y-72978628D02*
X123384524Y-73026247D01*
X123384524Y-73026247D02*
X123479762Y-73073866D01*
X123479762Y-73073866D02*
X123670238Y-73073866D01*
X123670238Y-73073866D02*
X123765476Y-73026247D01*
X123765476Y-73026247D02*
X123813095Y-72978628D01*
X123813095Y-72978628D02*
X123860714Y-72883390D01*
X171761905Y-138414819D02*
X171761905Y-137414819D01*
X171761905Y-137414819D02*
X172000000Y-137414819D01*
X172000000Y-137414819D02*
X172142857Y-137462438D01*
X172142857Y-137462438D02*
X172238095Y-137557676D01*
X172238095Y-137557676D02*
X172285714Y-137652914D01*
X172285714Y-137652914D02*
X172333333Y-137843390D01*
X172333333Y-137843390D02*
X172333333Y-137986247D01*
X172333333Y-137986247D02*
X172285714Y-138176723D01*
X172285714Y-138176723D02*
X172238095Y-138271961D01*
X172238095Y-138271961D02*
X172142857Y-138367200D01*
X172142857Y-138367200D02*
X172000000Y-138414819D01*
X172000000Y-138414819D02*
X171761905Y-138414819D01*
X173285714Y-138414819D02*
X172714286Y-138414819D01*
X173000000Y-138414819D02*
X173000000Y-137414819D01*
X173000000Y-137414819D02*
X172904762Y-137557676D01*
X172904762Y-137557676D02*
X172809524Y-137652914D01*
X172809524Y-137652914D02*
X172714286Y-137700533D01*
X171154761Y-99200057D02*
X171059523Y-99152438D01*
X171059523Y-99152438D02*
X170964285Y-99057200D01*
X170964285Y-99057200D02*
X170821428Y-98914342D01*
X170821428Y-98914342D02*
X170726190Y-98866723D01*
X170726190Y-98866723D02*
X170630952Y-98866723D01*
X170678571Y-99104819D02*
X170583333Y-99057200D01*
X170583333Y-99057200D02*
X170488095Y-98961961D01*
X170488095Y-98961961D02*
X170440476Y-98771485D01*
X170440476Y-98771485D02*
X170440476Y-98438152D01*
X170440476Y-98438152D02*
X170488095Y-98247676D01*
X170488095Y-98247676D02*
X170583333Y-98152438D01*
X170583333Y-98152438D02*
X170678571Y-98104819D01*
X170678571Y-98104819D02*
X170869047Y-98104819D01*
X170869047Y-98104819D02*
X170964285Y-98152438D01*
X170964285Y-98152438D02*
X171059523Y-98247676D01*
X171059523Y-98247676D02*
X171107142Y-98438152D01*
X171107142Y-98438152D02*
X171107142Y-98771485D01*
X171107142Y-98771485D02*
X171059523Y-98961961D01*
X171059523Y-98961961D02*
X170964285Y-99057200D01*
X170964285Y-99057200D02*
X170869047Y-99104819D01*
X170869047Y-99104819D02*
X170678571Y-99104819D01*
X172059523Y-99104819D02*
X171488095Y-99104819D01*
X171773809Y-99104819D02*
X171773809Y-98104819D01*
X171773809Y-98104819D02*
X171678571Y-98247676D01*
X171678571Y-98247676D02*
X171583333Y-98342914D01*
X171583333Y-98342914D02*
X171488095Y-98390533D01*
X140857142Y-75204819D02*
X140523809Y-74728628D01*
X140285714Y-75204819D02*
X140285714Y-74204819D01*
X140285714Y-74204819D02*
X140666666Y-74204819D01*
X140666666Y-74204819D02*
X140761904Y-74252438D01*
X140761904Y-74252438D02*
X140809523Y-74300057D01*
X140809523Y-74300057D02*
X140857142Y-74395295D01*
X140857142Y-74395295D02*
X140857142Y-74538152D01*
X140857142Y-74538152D02*
X140809523Y-74633390D01*
X140809523Y-74633390D02*
X140761904Y-74681009D01*
X140761904Y-74681009D02*
X140666666Y-74728628D01*
X140666666Y-74728628D02*
X140285714Y-74728628D01*
X141809523Y-75204819D02*
X141238095Y-75204819D01*
X141523809Y-75204819D02*
X141523809Y-74204819D01*
X141523809Y-74204819D02*
X141428571Y-74347676D01*
X141428571Y-74347676D02*
X141333333Y-74442914D01*
X141333333Y-74442914D02*
X141238095Y-74490533D01*
X142761904Y-75204819D02*
X142190476Y-75204819D01*
X142476190Y-75204819D02*
X142476190Y-74204819D01*
X142476190Y-74204819D02*
X142380952Y-74347676D01*
X142380952Y-74347676D02*
X142285714Y-74442914D01*
X142285714Y-74442914D02*
X142190476Y-74490533D01*
X138833333Y-48109580D02*
X138785714Y-48157200D01*
X138785714Y-48157200D02*
X138642857Y-48204819D01*
X138642857Y-48204819D02*
X138547619Y-48204819D01*
X138547619Y-48204819D02*
X138404762Y-48157200D01*
X138404762Y-48157200D02*
X138309524Y-48061961D01*
X138309524Y-48061961D02*
X138261905Y-47966723D01*
X138261905Y-47966723D02*
X138214286Y-47776247D01*
X138214286Y-47776247D02*
X138214286Y-47633390D01*
X138214286Y-47633390D02*
X138261905Y-47442914D01*
X138261905Y-47442914D02*
X138309524Y-47347676D01*
X138309524Y-47347676D02*
X138404762Y-47252438D01*
X138404762Y-47252438D02*
X138547619Y-47204819D01*
X138547619Y-47204819D02*
X138642857Y-47204819D01*
X138642857Y-47204819D02*
X138785714Y-47252438D01*
X138785714Y-47252438D02*
X138833333Y-47300057D01*
X139166667Y-47204819D02*
X139785714Y-47204819D01*
X139785714Y-47204819D02*
X139452381Y-47585771D01*
X139452381Y-47585771D02*
X139595238Y-47585771D01*
X139595238Y-47585771D02*
X139690476Y-47633390D01*
X139690476Y-47633390D02*
X139738095Y-47681009D01*
X139738095Y-47681009D02*
X139785714Y-47776247D01*
X139785714Y-47776247D02*
X139785714Y-48014342D01*
X139785714Y-48014342D02*
X139738095Y-48109580D01*
X139738095Y-48109580D02*
X139690476Y-48157200D01*
X139690476Y-48157200D02*
X139595238Y-48204819D01*
X139595238Y-48204819D02*
X139309524Y-48204819D01*
X139309524Y-48204819D02*
X139214286Y-48157200D01*
X139214286Y-48157200D02*
X139166667Y-48109580D01*
X122933333Y-78609580D02*
X122885714Y-78657200D01*
X122885714Y-78657200D02*
X122742857Y-78704819D01*
X122742857Y-78704819D02*
X122647619Y-78704819D01*
X122647619Y-78704819D02*
X122504762Y-78657200D01*
X122504762Y-78657200D02*
X122409524Y-78561961D01*
X122409524Y-78561961D02*
X122361905Y-78466723D01*
X122361905Y-78466723D02*
X122314286Y-78276247D01*
X122314286Y-78276247D02*
X122314286Y-78133390D01*
X122314286Y-78133390D02*
X122361905Y-77942914D01*
X122361905Y-77942914D02*
X122409524Y-77847676D01*
X122409524Y-77847676D02*
X122504762Y-77752438D01*
X122504762Y-77752438D02*
X122647619Y-77704819D01*
X122647619Y-77704819D02*
X122742857Y-77704819D01*
X122742857Y-77704819D02*
X122885714Y-77752438D01*
X122885714Y-77752438D02*
X122933333Y-77800057D01*
X123790476Y-77704819D02*
X123600000Y-77704819D01*
X123600000Y-77704819D02*
X123504762Y-77752438D01*
X123504762Y-77752438D02*
X123457143Y-77800057D01*
X123457143Y-77800057D02*
X123361905Y-77942914D01*
X123361905Y-77942914D02*
X123314286Y-78133390D01*
X123314286Y-78133390D02*
X123314286Y-78514342D01*
X123314286Y-78514342D02*
X123361905Y-78609580D01*
X123361905Y-78609580D02*
X123409524Y-78657200D01*
X123409524Y-78657200D02*
X123504762Y-78704819D01*
X123504762Y-78704819D02*
X123695238Y-78704819D01*
X123695238Y-78704819D02*
X123790476Y-78657200D01*
X123790476Y-78657200D02*
X123838095Y-78609580D01*
X123838095Y-78609580D02*
X123885714Y-78514342D01*
X123885714Y-78514342D02*
X123885714Y-78276247D01*
X123885714Y-78276247D02*
X123838095Y-78181009D01*
X123838095Y-78181009D02*
X123790476Y-78133390D01*
X123790476Y-78133390D02*
X123695238Y-78085771D01*
X123695238Y-78085771D02*
X123504762Y-78085771D01*
X123504762Y-78085771D02*
X123409524Y-78133390D01*
X123409524Y-78133390D02*
X123361905Y-78181009D01*
X123361905Y-78181009D02*
X123314286Y-78276247D01*
D10*
X149238095Y-129609800D02*
X149380952Y-129657419D01*
X149380952Y-129657419D02*
X149619047Y-129657419D01*
X149619047Y-129657419D02*
X149714285Y-129609800D01*
X149714285Y-129609800D02*
X149761904Y-129562180D01*
X149761904Y-129562180D02*
X149809523Y-129466942D01*
X149809523Y-129466942D02*
X149809523Y-129371704D01*
X149809523Y-129371704D02*
X149761904Y-129276466D01*
X149761904Y-129276466D02*
X149714285Y-129228847D01*
X149714285Y-129228847D02*
X149619047Y-129181228D01*
X149619047Y-129181228D02*
X149428571Y-129133609D01*
X149428571Y-129133609D02*
X149333333Y-129085990D01*
X149333333Y-129085990D02*
X149285714Y-129038371D01*
X149285714Y-129038371D02*
X149238095Y-128943133D01*
X149238095Y-128943133D02*
X149238095Y-128847895D01*
X149238095Y-128847895D02*
X149285714Y-128752657D01*
X149285714Y-128752657D02*
X149333333Y-128705038D01*
X149333333Y-128705038D02*
X149428571Y-128657419D01*
X149428571Y-128657419D02*
X149666666Y-128657419D01*
X149666666Y-128657419D02*
X149809523Y-128705038D01*
X150761904Y-129657419D02*
X150190476Y-129657419D01*
X150476190Y-129657419D02*
X150476190Y-128657419D01*
X150476190Y-128657419D02*
X150380952Y-128800276D01*
X150380952Y-128800276D02*
X150285714Y-128895514D01*
X150285714Y-128895514D02*
X150190476Y-128943133D01*
D11*
X127432142Y-101704819D02*
X127098809Y-101228628D01*
X126860714Y-101704819D02*
X126860714Y-100704819D01*
X126860714Y-100704819D02*
X127241666Y-100704819D01*
X127241666Y-100704819D02*
X127336904Y-100752438D01*
X127336904Y-100752438D02*
X127384523Y-100800057D01*
X127384523Y-100800057D02*
X127432142Y-100895295D01*
X127432142Y-100895295D02*
X127432142Y-101038152D01*
X127432142Y-101038152D02*
X127384523Y-101133390D01*
X127384523Y-101133390D02*
X127336904Y-101181009D01*
X127336904Y-101181009D02*
X127241666Y-101228628D01*
X127241666Y-101228628D02*
X126860714Y-101228628D01*
X128384523Y-101704819D02*
X127813095Y-101704819D01*
X128098809Y-101704819D02*
X128098809Y-100704819D01*
X128098809Y-100704819D02*
X128003571Y-100847676D01*
X128003571Y-100847676D02*
X127908333Y-100942914D01*
X127908333Y-100942914D02*
X127813095Y-100990533D01*
X129241666Y-100704819D02*
X129051190Y-100704819D01*
X129051190Y-100704819D02*
X128955952Y-100752438D01*
X128955952Y-100752438D02*
X128908333Y-100800057D01*
X128908333Y-100800057D02*
X128813095Y-100942914D01*
X128813095Y-100942914D02*
X128765476Y-101133390D01*
X128765476Y-101133390D02*
X128765476Y-101514342D01*
X128765476Y-101514342D02*
X128813095Y-101609580D01*
X128813095Y-101609580D02*
X128860714Y-101657200D01*
X128860714Y-101657200D02*
X128955952Y-101704819D01*
X128955952Y-101704819D02*
X129146428Y-101704819D01*
X129146428Y-101704819D02*
X129241666Y-101657200D01*
X129241666Y-101657200D02*
X129289285Y-101609580D01*
X129289285Y-101609580D02*
X129336904Y-101514342D01*
X129336904Y-101514342D02*
X129336904Y-101276247D01*
X129336904Y-101276247D02*
X129289285Y-101181009D01*
X129289285Y-101181009D02*
X129241666Y-101133390D01*
X129241666Y-101133390D02*
X129146428Y-101085771D01*
X129146428Y-101085771D02*
X128955952Y-101085771D01*
X128955952Y-101085771D02*
X128860714Y-101133390D01*
X128860714Y-101133390D02*
X128813095Y-101181009D01*
X128813095Y-101181009D02*
X128765476Y-101276247D01*
X140857142Y-76954819D02*
X140523809Y-76478628D01*
X140285714Y-76954819D02*
X140285714Y-75954819D01*
X140285714Y-75954819D02*
X140666666Y-75954819D01*
X140666666Y-75954819D02*
X140761904Y-76002438D01*
X140761904Y-76002438D02*
X140809523Y-76050057D01*
X140809523Y-76050057D02*
X140857142Y-76145295D01*
X140857142Y-76145295D02*
X140857142Y-76288152D01*
X140857142Y-76288152D02*
X140809523Y-76383390D01*
X140809523Y-76383390D02*
X140761904Y-76431009D01*
X140761904Y-76431009D02*
X140666666Y-76478628D01*
X140666666Y-76478628D02*
X140285714Y-76478628D01*
X141809523Y-76954819D02*
X141238095Y-76954819D01*
X141523809Y-76954819D02*
X141523809Y-75954819D01*
X141523809Y-75954819D02*
X141428571Y-76097676D01*
X141428571Y-76097676D02*
X141333333Y-76192914D01*
X141333333Y-76192914D02*
X141238095Y-76240533D01*
X142190476Y-76050057D02*
X142238095Y-76002438D01*
X142238095Y-76002438D02*
X142333333Y-75954819D01*
X142333333Y-75954819D02*
X142571428Y-75954819D01*
X142571428Y-75954819D02*
X142666666Y-76002438D01*
X142666666Y-76002438D02*
X142714285Y-76050057D01*
X142714285Y-76050057D02*
X142761904Y-76145295D01*
X142761904Y-76145295D02*
X142761904Y-76240533D01*
X142761904Y-76240533D02*
X142714285Y-76383390D01*
X142714285Y-76383390D02*
X142142857Y-76954819D01*
X142142857Y-76954819D02*
X142761904Y-76954819D01*
X162008333Y-104909580D02*
X161960714Y-104957200D01*
X161960714Y-104957200D02*
X161817857Y-105004819D01*
X161817857Y-105004819D02*
X161722619Y-105004819D01*
X161722619Y-105004819D02*
X161579762Y-104957200D01*
X161579762Y-104957200D02*
X161484524Y-104861961D01*
X161484524Y-104861961D02*
X161436905Y-104766723D01*
X161436905Y-104766723D02*
X161389286Y-104576247D01*
X161389286Y-104576247D02*
X161389286Y-104433390D01*
X161389286Y-104433390D02*
X161436905Y-104242914D01*
X161436905Y-104242914D02*
X161484524Y-104147676D01*
X161484524Y-104147676D02*
X161579762Y-104052438D01*
X161579762Y-104052438D02*
X161722619Y-104004819D01*
X161722619Y-104004819D02*
X161817857Y-104004819D01*
X161817857Y-104004819D02*
X161960714Y-104052438D01*
X161960714Y-104052438D02*
X162008333Y-104100057D01*
X162865476Y-104338152D02*
X162865476Y-105004819D01*
X162627381Y-103957200D02*
X162389286Y-104671485D01*
X162389286Y-104671485D02*
X163008333Y-104671485D01*
X127408333Y-98089580D02*
X127360714Y-98137200D01*
X127360714Y-98137200D02*
X127217857Y-98184819D01*
X127217857Y-98184819D02*
X127122619Y-98184819D01*
X127122619Y-98184819D02*
X126979762Y-98137200D01*
X126979762Y-98137200D02*
X126884524Y-98041961D01*
X126884524Y-98041961D02*
X126836905Y-97946723D01*
X126836905Y-97946723D02*
X126789286Y-97756247D01*
X126789286Y-97756247D02*
X126789286Y-97613390D01*
X126789286Y-97613390D02*
X126836905Y-97422914D01*
X126836905Y-97422914D02*
X126884524Y-97327676D01*
X126884524Y-97327676D02*
X126979762Y-97232438D01*
X126979762Y-97232438D02*
X127122619Y-97184819D01*
X127122619Y-97184819D02*
X127217857Y-97184819D01*
X127217857Y-97184819D02*
X127360714Y-97232438D01*
X127360714Y-97232438D02*
X127408333Y-97280057D01*
X127979762Y-97613390D02*
X127884524Y-97565771D01*
X127884524Y-97565771D02*
X127836905Y-97518152D01*
X127836905Y-97518152D02*
X127789286Y-97422914D01*
X127789286Y-97422914D02*
X127789286Y-97375295D01*
X127789286Y-97375295D02*
X127836905Y-97280057D01*
X127836905Y-97280057D02*
X127884524Y-97232438D01*
X127884524Y-97232438D02*
X127979762Y-97184819D01*
X127979762Y-97184819D02*
X128170238Y-97184819D01*
X128170238Y-97184819D02*
X128265476Y-97232438D01*
X128265476Y-97232438D02*
X128313095Y-97280057D01*
X128313095Y-97280057D02*
X128360714Y-97375295D01*
X128360714Y-97375295D02*
X128360714Y-97422914D01*
X128360714Y-97422914D02*
X128313095Y-97518152D01*
X128313095Y-97518152D02*
X128265476Y-97565771D01*
X128265476Y-97565771D02*
X128170238Y-97613390D01*
X128170238Y-97613390D02*
X127979762Y-97613390D01*
X127979762Y-97613390D02*
X127884524Y-97661009D01*
X127884524Y-97661009D02*
X127836905Y-97708628D01*
X127836905Y-97708628D02*
X127789286Y-97803866D01*
X127789286Y-97803866D02*
X127789286Y-97994342D01*
X127789286Y-97994342D02*
X127836905Y-98089580D01*
X127836905Y-98089580D02*
X127884524Y-98137200D01*
X127884524Y-98137200D02*
X127979762Y-98184819D01*
X127979762Y-98184819D02*
X128170238Y-98184819D01*
X128170238Y-98184819D02*
X128265476Y-98137200D01*
X128265476Y-98137200D02*
X128313095Y-98089580D01*
X128313095Y-98089580D02*
X128360714Y-97994342D01*
X128360714Y-97994342D02*
X128360714Y-97803866D01*
X128360714Y-97803866D02*
X128313095Y-97708628D01*
X128313095Y-97708628D02*
X128265476Y-97661009D01*
X128265476Y-97661009D02*
X128170238Y-97613390D01*
X138261905Y-42704819D02*
X138261905Y-41704819D01*
X138261905Y-41704819D02*
X138500000Y-41704819D01*
X138500000Y-41704819D02*
X138642857Y-41752438D01*
X138642857Y-41752438D02*
X138738095Y-41847676D01*
X138738095Y-41847676D02*
X138785714Y-41942914D01*
X138785714Y-41942914D02*
X138833333Y-42133390D01*
X138833333Y-42133390D02*
X138833333Y-42276247D01*
X138833333Y-42276247D02*
X138785714Y-42466723D01*
X138785714Y-42466723D02*
X138738095Y-42561961D01*
X138738095Y-42561961D02*
X138642857Y-42657200D01*
X138642857Y-42657200D02*
X138500000Y-42704819D01*
X138500000Y-42704819D02*
X138261905Y-42704819D01*
X139214286Y-41800057D02*
X139261905Y-41752438D01*
X139261905Y-41752438D02*
X139357143Y-41704819D01*
X139357143Y-41704819D02*
X139595238Y-41704819D01*
X139595238Y-41704819D02*
X139690476Y-41752438D01*
X139690476Y-41752438D02*
X139738095Y-41800057D01*
X139738095Y-41800057D02*
X139785714Y-41895295D01*
X139785714Y-41895295D02*
X139785714Y-41990533D01*
X139785714Y-41990533D02*
X139738095Y-42133390D01*
X139738095Y-42133390D02*
X139166667Y-42704819D01*
X139166667Y-42704819D02*
X139785714Y-42704819D01*
X122908333Y-75204819D02*
X122575000Y-74728628D01*
X122336905Y-75204819D02*
X122336905Y-74204819D01*
X122336905Y-74204819D02*
X122717857Y-74204819D01*
X122717857Y-74204819D02*
X122813095Y-74252438D01*
X122813095Y-74252438D02*
X122860714Y-74300057D01*
X122860714Y-74300057D02*
X122908333Y-74395295D01*
X122908333Y-74395295D02*
X122908333Y-74538152D01*
X122908333Y-74538152D02*
X122860714Y-74633390D01*
X122860714Y-74633390D02*
X122813095Y-74681009D01*
X122813095Y-74681009D02*
X122717857Y-74728628D01*
X122717857Y-74728628D02*
X122336905Y-74728628D01*
X123479762Y-74633390D02*
X123384524Y-74585771D01*
X123384524Y-74585771D02*
X123336905Y-74538152D01*
X123336905Y-74538152D02*
X123289286Y-74442914D01*
X123289286Y-74442914D02*
X123289286Y-74395295D01*
X123289286Y-74395295D02*
X123336905Y-74300057D01*
X123336905Y-74300057D02*
X123384524Y-74252438D01*
X123384524Y-74252438D02*
X123479762Y-74204819D01*
X123479762Y-74204819D02*
X123670238Y-74204819D01*
X123670238Y-74204819D02*
X123765476Y-74252438D01*
X123765476Y-74252438D02*
X123813095Y-74300057D01*
X123813095Y-74300057D02*
X123860714Y-74395295D01*
X123860714Y-74395295D02*
X123860714Y-74442914D01*
X123860714Y-74442914D02*
X123813095Y-74538152D01*
X123813095Y-74538152D02*
X123765476Y-74585771D01*
X123765476Y-74585771D02*
X123670238Y-74633390D01*
X123670238Y-74633390D02*
X123479762Y-74633390D01*
X123479762Y-74633390D02*
X123384524Y-74681009D01*
X123384524Y-74681009D02*
X123336905Y-74728628D01*
X123336905Y-74728628D02*
X123289286Y-74823866D01*
X123289286Y-74823866D02*
X123289286Y-75014342D01*
X123289286Y-75014342D02*
X123336905Y-75109580D01*
X123336905Y-75109580D02*
X123384524Y-75157200D01*
X123384524Y-75157200D02*
X123479762Y-75204819D01*
X123479762Y-75204819D02*
X123670238Y-75204819D01*
X123670238Y-75204819D02*
X123765476Y-75157200D01*
X123765476Y-75157200D02*
X123813095Y-75109580D01*
X123813095Y-75109580D02*
X123860714Y-75014342D01*
X123860714Y-75014342D02*
X123860714Y-74823866D01*
X123860714Y-74823866D02*
X123813095Y-74728628D01*
X123813095Y-74728628D02*
X123765476Y-74681009D01*
X123765476Y-74681009D02*
X123670238Y-74633390D01*
X138833333Y-45359580D02*
X138785714Y-45407200D01*
X138785714Y-45407200D02*
X138642857Y-45454819D01*
X138642857Y-45454819D02*
X138547619Y-45454819D01*
X138547619Y-45454819D02*
X138404762Y-45407200D01*
X138404762Y-45407200D02*
X138309524Y-45311961D01*
X138309524Y-45311961D02*
X138261905Y-45216723D01*
X138261905Y-45216723D02*
X138214286Y-45026247D01*
X138214286Y-45026247D02*
X138214286Y-44883390D01*
X138214286Y-44883390D02*
X138261905Y-44692914D01*
X138261905Y-44692914D02*
X138309524Y-44597676D01*
X138309524Y-44597676D02*
X138404762Y-44502438D01*
X138404762Y-44502438D02*
X138547619Y-44454819D01*
X138547619Y-44454819D02*
X138642857Y-44454819D01*
X138642857Y-44454819D02*
X138785714Y-44502438D01*
X138785714Y-44502438D02*
X138833333Y-44550057D01*
X139785714Y-45454819D02*
X139214286Y-45454819D01*
X139500000Y-45454819D02*
X139500000Y-44454819D01*
X139500000Y-44454819D02*
X139404762Y-44597676D01*
X139404762Y-44597676D02*
X139309524Y-44692914D01*
X139309524Y-44692914D02*
X139214286Y-44740533D01*
X129642357Y-70504819D02*
X129642357Y-69504819D01*
X129642357Y-69504819D02*
X129880452Y-69504819D01*
X129880452Y-69504819D02*
X130023309Y-69552438D01*
X130023309Y-69552438D02*
X130118547Y-69647676D01*
X130118547Y-69647676D02*
X130166166Y-69742914D01*
X130166166Y-69742914D02*
X130213785Y-69933390D01*
X130213785Y-69933390D02*
X130213785Y-70076247D01*
X130213785Y-70076247D02*
X130166166Y-70266723D01*
X130166166Y-70266723D02*
X130118547Y-70361961D01*
X130118547Y-70361961D02*
X130023309Y-70457200D01*
X130023309Y-70457200D02*
X129880452Y-70504819D01*
X129880452Y-70504819D02*
X129642357Y-70504819D01*
X130642357Y-70504819D02*
X130642357Y-69838152D01*
X130642357Y-69504819D02*
X130594738Y-69552438D01*
X130594738Y-69552438D02*
X130642357Y-69600057D01*
X130642357Y-69600057D02*
X130689976Y-69552438D01*
X130689976Y-69552438D02*
X130642357Y-69504819D01*
X130642357Y-69504819D02*
X130642357Y-69600057D01*
X131070928Y-70457200D02*
X131166166Y-70504819D01*
X131166166Y-70504819D02*
X131356642Y-70504819D01*
X131356642Y-70504819D02*
X131451880Y-70457200D01*
X131451880Y-70457200D02*
X131499499Y-70361961D01*
X131499499Y-70361961D02*
X131499499Y-70314342D01*
X131499499Y-70314342D02*
X131451880Y-70219104D01*
X131451880Y-70219104D02*
X131356642Y-70171485D01*
X131356642Y-70171485D02*
X131213785Y-70171485D01*
X131213785Y-70171485D02*
X131118547Y-70123866D01*
X131118547Y-70123866D02*
X131070928Y-70028628D01*
X131070928Y-70028628D02*
X131070928Y-69981009D01*
X131070928Y-69981009D02*
X131118547Y-69885771D01*
X131118547Y-69885771D02*
X131213785Y-69838152D01*
X131213785Y-69838152D02*
X131356642Y-69838152D01*
X131356642Y-69838152D02*
X131451880Y-69885771D01*
X131785214Y-69838152D02*
X132166166Y-69838152D01*
X131928071Y-69504819D02*
X131928071Y-70361961D01*
X131928071Y-70361961D02*
X131975690Y-70457200D01*
X131975690Y-70457200D02*
X132070928Y-70504819D01*
X132070928Y-70504819D02*
X132166166Y-70504819D01*
X132642357Y-70504819D02*
X132547119Y-70457200D01*
X132547119Y-70457200D02*
X132499500Y-70409580D01*
X132499500Y-70409580D02*
X132451881Y-70314342D01*
X132451881Y-70314342D02*
X132451881Y-70028628D01*
X132451881Y-70028628D02*
X132499500Y-69933390D01*
X132499500Y-69933390D02*
X132547119Y-69885771D01*
X132547119Y-69885771D02*
X132642357Y-69838152D01*
X132642357Y-69838152D02*
X132785214Y-69838152D01*
X132785214Y-69838152D02*
X132880452Y-69885771D01*
X132880452Y-69885771D02*
X132928071Y-69933390D01*
X132928071Y-69933390D02*
X132975690Y-70028628D01*
X132975690Y-70028628D02*
X132975690Y-70314342D01*
X132975690Y-70314342D02*
X132928071Y-70409580D01*
X132928071Y-70409580D02*
X132880452Y-70457200D01*
X132880452Y-70457200D02*
X132785214Y-70504819D01*
X132785214Y-70504819D02*
X132642357Y-70504819D01*
X133404262Y-70504819D02*
X133404262Y-69838152D01*
X133404262Y-70028628D02*
X133451881Y-69933390D01*
X133451881Y-69933390D02*
X133499500Y-69885771D01*
X133499500Y-69885771D02*
X133594738Y-69838152D01*
X133594738Y-69838152D02*
X133689976Y-69838152D01*
X133880453Y-69838152D02*
X134261405Y-69838152D01*
X134023310Y-69504819D02*
X134023310Y-70361961D01*
X134023310Y-70361961D02*
X134070929Y-70457200D01*
X134070929Y-70457200D02*
X134166167Y-70504819D01*
X134166167Y-70504819D02*
X134261405Y-70504819D01*
X134594739Y-70504819D02*
X134594739Y-69838152D01*
X134594739Y-69504819D02*
X134547120Y-69552438D01*
X134547120Y-69552438D02*
X134594739Y-69600057D01*
X134594739Y-69600057D02*
X134642358Y-69552438D01*
X134642358Y-69552438D02*
X134594739Y-69504819D01*
X134594739Y-69504819D02*
X134594739Y-69600057D01*
X135213786Y-70504819D02*
X135118548Y-70457200D01*
X135118548Y-70457200D02*
X135070929Y-70409580D01*
X135070929Y-70409580D02*
X135023310Y-70314342D01*
X135023310Y-70314342D02*
X135023310Y-70028628D01*
X135023310Y-70028628D02*
X135070929Y-69933390D01*
X135070929Y-69933390D02*
X135118548Y-69885771D01*
X135118548Y-69885771D02*
X135213786Y-69838152D01*
X135213786Y-69838152D02*
X135356643Y-69838152D01*
X135356643Y-69838152D02*
X135451881Y-69885771D01*
X135451881Y-69885771D02*
X135499500Y-69933390D01*
X135499500Y-69933390D02*
X135547119Y-70028628D01*
X135547119Y-70028628D02*
X135547119Y-70314342D01*
X135547119Y-70314342D02*
X135499500Y-70409580D01*
X135499500Y-70409580D02*
X135451881Y-70457200D01*
X135451881Y-70457200D02*
X135356643Y-70504819D01*
X135356643Y-70504819D02*
X135213786Y-70504819D01*
X135975691Y-69838152D02*
X135975691Y-70504819D01*
X135975691Y-69933390D02*
X136023310Y-69885771D01*
X136023310Y-69885771D02*
X136118548Y-69838152D01*
X136118548Y-69838152D02*
X136261405Y-69838152D01*
X136261405Y-69838152D02*
X136356643Y-69885771D01*
X136356643Y-69885771D02*
X136404262Y-69981009D01*
X136404262Y-69981009D02*
X136404262Y-70504819D01*
X137404262Y-70504819D02*
X136832834Y-70504819D01*
X137118548Y-70504819D02*
X137118548Y-69504819D01*
X137118548Y-69504819D02*
X137023310Y-69647676D01*
X137023310Y-69647676D02*
X136928072Y-69742914D01*
X136928072Y-69742914D02*
X136832834Y-69790533D01*
X127432142Y-99954819D02*
X127098809Y-99478628D01*
X126860714Y-99954819D02*
X126860714Y-98954819D01*
X126860714Y-98954819D02*
X127241666Y-98954819D01*
X127241666Y-98954819D02*
X127336904Y-99002438D01*
X127336904Y-99002438D02*
X127384523Y-99050057D01*
X127384523Y-99050057D02*
X127432142Y-99145295D01*
X127432142Y-99145295D02*
X127432142Y-99288152D01*
X127432142Y-99288152D02*
X127384523Y-99383390D01*
X127384523Y-99383390D02*
X127336904Y-99431009D01*
X127336904Y-99431009D02*
X127241666Y-99478628D01*
X127241666Y-99478628D02*
X126860714Y-99478628D01*
X128384523Y-99954819D02*
X127813095Y-99954819D01*
X128098809Y-99954819D02*
X128098809Y-98954819D01*
X128098809Y-98954819D02*
X128003571Y-99097676D01*
X128003571Y-99097676D02*
X127908333Y-99192914D01*
X127908333Y-99192914D02*
X127813095Y-99240533D01*
X129289285Y-98954819D02*
X128813095Y-98954819D01*
X128813095Y-98954819D02*
X128765476Y-99431009D01*
X128765476Y-99431009D02*
X128813095Y-99383390D01*
X128813095Y-99383390D02*
X128908333Y-99335771D01*
X128908333Y-99335771D02*
X129146428Y-99335771D01*
X129146428Y-99335771D02*
X129241666Y-99383390D01*
X129241666Y-99383390D02*
X129289285Y-99431009D01*
X129289285Y-99431009D02*
X129336904Y-99526247D01*
X129336904Y-99526247D02*
X129336904Y-99764342D01*
X129336904Y-99764342D02*
X129289285Y-99859580D01*
X129289285Y-99859580D02*
X129241666Y-99907200D01*
X129241666Y-99907200D02*
X129146428Y-99954819D01*
X129146428Y-99954819D02*
X128908333Y-99954819D01*
X128908333Y-99954819D02*
X128813095Y-99907200D01*
X128813095Y-99907200D02*
X128765476Y-99859580D01*
X162008333Y-101504819D02*
X161675000Y-101028628D01*
X161436905Y-101504819D02*
X161436905Y-100504819D01*
X161436905Y-100504819D02*
X161817857Y-100504819D01*
X161817857Y-100504819D02*
X161913095Y-100552438D01*
X161913095Y-100552438D02*
X161960714Y-100600057D01*
X161960714Y-100600057D02*
X162008333Y-100695295D01*
X162008333Y-100695295D02*
X162008333Y-100838152D01*
X162008333Y-100838152D02*
X161960714Y-100933390D01*
X161960714Y-100933390D02*
X161913095Y-100981009D01*
X161913095Y-100981009D02*
X161817857Y-101028628D01*
X161817857Y-101028628D02*
X161436905Y-101028628D01*
X162913095Y-100504819D02*
X162436905Y-100504819D01*
X162436905Y-100504819D02*
X162389286Y-100981009D01*
X162389286Y-100981009D02*
X162436905Y-100933390D01*
X162436905Y-100933390D02*
X162532143Y-100885771D01*
X162532143Y-100885771D02*
X162770238Y-100885771D01*
X162770238Y-100885771D02*
X162865476Y-100933390D01*
X162865476Y-100933390D02*
X162913095Y-100981009D01*
X162913095Y-100981009D02*
X162960714Y-101076247D01*
X162960714Y-101076247D02*
X162960714Y-101314342D01*
X162960714Y-101314342D02*
X162913095Y-101409580D01*
X162913095Y-101409580D02*
X162865476Y-101457200D01*
X162865476Y-101457200D02*
X162770238Y-101504819D01*
X162770238Y-101504819D02*
X162532143Y-101504819D01*
X162532143Y-101504819D02*
X162436905Y-101457200D01*
X162436905Y-101457200D02*
X162389286Y-101409580D01*
X162083333Y-97909580D02*
X162035714Y-97957200D01*
X162035714Y-97957200D02*
X161892857Y-98004819D01*
X161892857Y-98004819D02*
X161797619Y-98004819D01*
X161797619Y-98004819D02*
X161654762Y-97957200D01*
X161654762Y-97957200D02*
X161559524Y-97861961D01*
X161559524Y-97861961D02*
X161511905Y-97766723D01*
X161511905Y-97766723D02*
X161464286Y-97576247D01*
X161464286Y-97576247D02*
X161464286Y-97433390D01*
X161464286Y-97433390D02*
X161511905Y-97242914D01*
X161511905Y-97242914D02*
X161559524Y-97147676D01*
X161559524Y-97147676D02*
X161654762Y-97052438D01*
X161654762Y-97052438D02*
X161797619Y-97004819D01*
X161797619Y-97004819D02*
X161892857Y-97004819D01*
X161892857Y-97004819D02*
X162035714Y-97052438D01*
X162035714Y-97052438D02*
X162083333Y-97100057D01*
X162464286Y-97100057D02*
X162511905Y-97052438D01*
X162511905Y-97052438D02*
X162607143Y-97004819D01*
X162607143Y-97004819D02*
X162845238Y-97004819D01*
X162845238Y-97004819D02*
X162940476Y-97052438D01*
X162940476Y-97052438D02*
X162988095Y-97100057D01*
X162988095Y-97100057D02*
X163035714Y-97195295D01*
X163035714Y-97195295D02*
X163035714Y-97290533D01*
X163035714Y-97290533D02*
X162988095Y-97433390D01*
X162988095Y-97433390D02*
X162416667Y-98004819D01*
X162416667Y-98004819D02*
X163035714Y-98004819D01*
X140833333Y-82109580D02*
X140785714Y-82157200D01*
X140785714Y-82157200D02*
X140642857Y-82204819D01*
X140642857Y-82204819D02*
X140547619Y-82204819D01*
X140547619Y-82204819D02*
X140404762Y-82157200D01*
X140404762Y-82157200D02*
X140309524Y-82061961D01*
X140309524Y-82061961D02*
X140261905Y-81966723D01*
X140261905Y-81966723D02*
X140214286Y-81776247D01*
X140214286Y-81776247D02*
X140214286Y-81633390D01*
X140214286Y-81633390D02*
X140261905Y-81442914D01*
X140261905Y-81442914D02*
X140309524Y-81347676D01*
X140309524Y-81347676D02*
X140404762Y-81252438D01*
X140404762Y-81252438D02*
X140547619Y-81204819D01*
X140547619Y-81204819D02*
X140642857Y-81204819D01*
X140642857Y-81204819D02*
X140785714Y-81252438D01*
X140785714Y-81252438D02*
X140833333Y-81300057D01*
X141166667Y-81204819D02*
X141833333Y-81204819D01*
X141833333Y-81204819D02*
X141404762Y-82204819D01*
X121336905Y-83204819D02*
X121336905Y-82204819D01*
X121336905Y-82204819D02*
X121575000Y-82204819D01*
X121575000Y-82204819D02*
X121717857Y-82252438D01*
X121717857Y-82252438D02*
X121813095Y-82347676D01*
X121813095Y-82347676D02*
X121860714Y-82442914D01*
X121860714Y-82442914D02*
X121908333Y-82633390D01*
X121908333Y-82633390D02*
X121908333Y-82776247D01*
X121908333Y-82776247D02*
X121860714Y-82966723D01*
X121860714Y-82966723D02*
X121813095Y-83061961D01*
X121813095Y-83061961D02*
X121717857Y-83157200D01*
X121717857Y-83157200D02*
X121575000Y-83204819D01*
X121575000Y-83204819D02*
X121336905Y-83204819D01*
X122765476Y-82538152D02*
X122765476Y-83204819D01*
X122527381Y-82157200D02*
X122289286Y-82871485D01*
X122289286Y-82871485D02*
X122908333Y-82871485D01*
X155797619Y-46823866D02*
X156559524Y-46823866D01*
X157083333Y-47204819D02*
X157273809Y-47204819D01*
X157273809Y-47204819D02*
X157369047Y-47157200D01*
X157369047Y-47157200D02*
X157416666Y-47109580D01*
X157416666Y-47109580D02*
X157511904Y-46966723D01*
X157511904Y-46966723D02*
X157559523Y-46776247D01*
X157559523Y-46776247D02*
X157559523Y-46395295D01*
X157559523Y-46395295D02*
X157511904Y-46300057D01*
X157511904Y-46300057D02*
X157464285Y-46252438D01*
X157464285Y-46252438D02*
X157369047Y-46204819D01*
X157369047Y-46204819D02*
X157178571Y-46204819D01*
X157178571Y-46204819D02*
X157083333Y-46252438D01*
X157083333Y-46252438D02*
X157035714Y-46300057D01*
X157035714Y-46300057D02*
X156988095Y-46395295D01*
X156988095Y-46395295D02*
X156988095Y-46633390D01*
X156988095Y-46633390D02*
X157035714Y-46728628D01*
X157035714Y-46728628D02*
X157083333Y-46776247D01*
X157083333Y-46776247D02*
X157178571Y-46823866D01*
X157178571Y-46823866D02*
X157369047Y-46823866D01*
X157369047Y-46823866D02*
X157464285Y-46776247D01*
X157464285Y-46776247D02*
X157511904Y-46728628D01*
X157511904Y-46728628D02*
X157559523Y-46633390D01*
X157845238Y-46204819D02*
X158178571Y-47204819D01*
X158178571Y-47204819D02*
X158511904Y-46204819D01*
X159178571Y-46681009D02*
X159321428Y-46728628D01*
X159321428Y-46728628D02*
X159369047Y-46776247D01*
X159369047Y-46776247D02*
X159416666Y-46871485D01*
X159416666Y-46871485D02*
X159416666Y-47014342D01*
X159416666Y-47014342D02*
X159369047Y-47109580D01*
X159369047Y-47109580D02*
X159321428Y-47157200D01*
X159321428Y-47157200D02*
X159226190Y-47204819D01*
X159226190Y-47204819D02*
X158845238Y-47204819D01*
X158845238Y-47204819D02*
X158845238Y-46204819D01*
X158845238Y-46204819D02*
X159178571Y-46204819D01*
X159178571Y-46204819D02*
X159273809Y-46252438D01*
X159273809Y-46252438D02*
X159321428Y-46300057D01*
X159321428Y-46300057D02*
X159369047Y-46395295D01*
X159369047Y-46395295D02*
X159369047Y-46490533D01*
X159369047Y-46490533D02*
X159321428Y-46585771D01*
X159321428Y-46585771D02*
X159273809Y-46633390D01*
X159273809Y-46633390D02*
X159178571Y-46681009D01*
X159178571Y-46681009D02*
X158845238Y-46681009D01*
X159797619Y-46919104D02*
X160273809Y-46919104D01*
X159702381Y-47204819D02*
X160035714Y-46204819D01*
X160035714Y-46204819D02*
X160369047Y-47204819D01*
X160559524Y-46204819D02*
X161130952Y-46204819D01*
X160845238Y-47204819D02*
X160845238Y-46204819D01*
X161321429Y-46204819D02*
X161892857Y-46204819D01*
X161607143Y-47204819D02*
X161607143Y-46204819D01*
X162750000Y-47204819D02*
X162178572Y-47204819D01*
X162464286Y-47204819D02*
X162464286Y-46204819D01*
X162464286Y-46204819D02*
X162369048Y-46347676D01*
X162369048Y-46347676D02*
X162273810Y-46442914D01*
X162273810Y-46442914D02*
X162178572Y-46490533D01*
X127408333Y-103454819D02*
X127075000Y-102978628D01*
X126836905Y-103454819D02*
X126836905Y-102454819D01*
X126836905Y-102454819D02*
X127217857Y-102454819D01*
X127217857Y-102454819D02*
X127313095Y-102502438D01*
X127313095Y-102502438D02*
X127360714Y-102550057D01*
X127360714Y-102550057D02*
X127408333Y-102645295D01*
X127408333Y-102645295D02*
X127408333Y-102788152D01*
X127408333Y-102788152D02*
X127360714Y-102883390D01*
X127360714Y-102883390D02*
X127313095Y-102931009D01*
X127313095Y-102931009D02*
X127217857Y-102978628D01*
X127217857Y-102978628D02*
X126836905Y-102978628D01*
X128170238Y-102931009D02*
X128313095Y-102978628D01*
X128313095Y-102978628D02*
X128360714Y-103026247D01*
X128360714Y-103026247D02*
X128408333Y-103121485D01*
X128408333Y-103121485D02*
X128408333Y-103264342D01*
X128408333Y-103264342D02*
X128360714Y-103359580D01*
X128360714Y-103359580D02*
X128313095Y-103407200D01*
X128313095Y-103407200D02*
X128217857Y-103454819D01*
X128217857Y-103454819D02*
X127836905Y-103454819D01*
X127836905Y-103454819D02*
X127836905Y-102454819D01*
X127836905Y-102454819D02*
X128170238Y-102454819D01*
X128170238Y-102454819D02*
X128265476Y-102502438D01*
X128265476Y-102502438D02*
X128313095Y-102550057D01*
X128313095Y-102550057D02*
X128360714Y-102645295D01*
X128360714Y-102645295D02*
X128360714Y-102740533D01*
X128360714Y-102740533D02*
X128313095Y-102835771D01*
X128313095Y-102835771D02*
X128265476Y-102883390D01*
X128265476Y-102883390D02*
X128170238Y-102931009D01*
X128170238Y-102931009D02*
X127836905Y-102931009D01*
X129360714Y-103454819D02*
X128789286Y-103454819D01*
X129075000Y-103454819D02*
X129075000Y-102454819D01*
X129075000Y-102454819D02*
X128979762Y-102597676D01*
X128979762Y-102597676D02*
X128884524Y-102692914D01*
X128884524Y-102692914D02*
X128789286Y-102740533D01*
X140857142Y-80454819D02*
X140523809Y-79978628D01*
X140285714Y-80454819D02*
X140285714Y-79454819D01*
X140285714Y-79454819D02*
X140666666Y-79454819D01*
X140666666Y-79454819D02*
X140761904Y-79502438D01*
X140761904Y-79502438D02*
X140809523Y-79550057D01*
X140809523Y-79550057D02*
X140857142Y-79645295D01*
X140857142Y-79645295D02*
X140857142Y-79788152D01*
X140857142Y-79788152D02*
X140809523Y-79883390D01*
X140809523Y-79883390D02*
X140761904Y-79931009D01*
X140761904Y-79931009D02*
X140666666Y-79978628D01*
X140666666Y-79978628D02*
X140285714Y-79978628D01*
X141809523Y-80454819D02*
X141238095Y-80454819D01*
X141523809Y-80454819D02*
X141523809Y-79454819D01*
X141523809Y-79454819D02*
X141428571Y-79597676D01*
X141428571Y-79597676D02*
X141333333Y-79692914D01*
X141333333Y-79692914D02*
X141238095Y-79740533D01*
X142666666Y-79788152D02*
X142666666Y-80454819D01*
X142428571Y-79407200D02*
X142190476Y-80121485D01*
X142190476Y-80121485D02*
X142809523Y-80121485D01*
X164833332Y-70504819D02*
X164357142Y-70504819D01*
X164357142Y-70504819D02*
X164357142Y-69504819D01*
X165547618Y-70457200D02*
X165452380Y-70504819D01*
X165452380Y-70504819D02*
X165261904Y-70504819D01*
X165261904Y-70504819D02*
X165166666Y-70457200D01*
X165166666Y-70457200D02*
X165119047Y-70361961D01*
X165119047Y-70361961D02*
X165119047Y-69981009D01*
X165119047Y-69981009D02*
X165166666Y-69885771D01*
X165166666Y-69885771D02*
X165261904Y-69838152D01*
X165261904Y-69838152D02*
X165452380Y-69838152D01*
X165452380Y-69838152D02*
X165547618Y-69885771D01*
X165547618Y-69885771D02*
X165595237Y-69981009D01*
X165595237Y-69981009D02*
X165595237Y-70076247D01*
X165595237Y-70076247D02*
X165119047Y-70171485D01*
X165928571Y-69838152D02*
X166166666Y-70504819D01*
X166166666Y-70504819D02*
X166404761Y-69838152D01*
X167166666Y-70457200D02*
X167071428Y-70504819D01*
X167071428Y-70504819D02*
X166880952Y-70504819D01*
X166880952Y-70504819D02*
X166785714Y-70457200D01*
X166785714Y-70457200D02*
X166738095Y-70361961D01*
X166738095Y-70361961D02*
X166738095Y-69981009D01*
X166738095Y-69981009D02*
X166785714Y-69885771D01*
X166785714Y-69885771D02*
X166880952Y-69838152D01*
X166880952Y-69838152D02*
X167071428Y-69838152D01*
X167071428Y-69838152D02*
X167166666Y-69885771D01*
X167166666Y-69885771D02*
X167214285Y-69981009D01*
X167214285Y-69981009D02*
X167214285Y-70076247D01*
X167214285Y-70076247D02*
X166738095Y-70171485D01*
X167785714Y-70504819D02*
X167690476Y-70457200D01*
X167690476Y-70457200D02*
X167642857Y-70361961D01*
X167642857Y-70361961D02*
X167642857Y-69504819D01*
X168690476Y-70504819D02*
X168119048Y-70504819D01*
X168404762Y-70504819D02*
X168404762Y-69504819D01*
X168404762Y-69504819D02*
X168309524Y-69647676D01*
X168309524Y-69647676D02*
X168214286Y-69742914D01*
X168214286Y-69742914D02*
X168119048Y-69790533D01*
X131842261Y-99200057D02*
X131747023Y-99152438D01*
X131747023Y-99152438D02*
X131651785Y-99057200D01*
X131651785Y-99057200D02*
X131508928Y-98914342D01*
X131508928Y-98914342D02*
X131413690Y-98866723D01*
X131413690Y-98866723D02*
X131318452Y-98866723D01*
X131366071Y-99104819D02*
X131270833Y-99057200D01*
X131270833Y-99057200D02*
X131175595Y-98961961D01*
X131175595Y-98961961D02*
X131127976Y-98771485D01*
X131127976Y-98771485D02*
X131127976Y-98438152D01*
X131127976Y-98438152D02*
X131175595Y-98247676D01*
X131175595Y-98247676D02*
X131270833Y-98152438D01*
X131270833Y-98152438D02*
X131366071Y-98104819D01*
X131366071Y-98104819D02*
X131556547Y-98104819D01*
X131556547Y-98104819D02*
X131651785Y-98152438D01*
X131651785Y-98152438D02*
X131747023Y-98247676D01*
X131747023Y-98247676D02*
X131794642Y-98438152D01*
X131794642Y-98438152D02*
X131794642Y-98771485D01*
X131794642Y-98771485D02*
X131747023Y-98961961D01*
X131747023Y-98961961D02*
X131651785Y-99057200D01*
X131651785Y-99057200D02*
X131556547Y-99104819D01*
X131556547Y-99104819D02*
X131366071Y-99104819D01*
X132175595Y-98200057D02*
X132223214Y-98152438D01*
X132223214Y-98152438D02*
X132318452Y-98104819D01*
X132318452Y-98104819D02*
X132556547Y-98104819D01*
X132556547Y-98104819D02*
X132651785Y-98152438D01*
X132651785Y-98152438D02*
X132699404Y-98200057D01*
X132699404Y-98200057D02*
X132747023Y-98295295D01*
X132747023Y-98295295D02*
X132747023Y-98390533D01*
X132747023Y-98390533D02*
X132699404Y-98533390D01*
X132699404Y-98533390D02*
X132127976Y-99104819D01*
X132127976Y-99104819D02*
X132747023Y-99104819D01*
X121336905Y-85954819D02*
X121336905Y-84954819D01*
X121336905Y-84954819D02*
X121575000Y-84954819D01*
X121575000Y-84954819D02*
X121717857Y-85002438D01*
X121717857Y-85002438D02*
X121813095Y-85097676D01*
X121813095Y-85097676D02*
X121860714Y-85192914D01*
X121860714Y-85192914D02*
X121908333Y-85383390D01*
X121908333Y-85383390D02*
X121908333Y-85526247D01*
X121908333Y-85526247D02*
X121860714Y-85716723D01*
X121860714Y-85716723D02*
X121813095Y-85811961D01*
X121813095Y-85811961D02*
X121717857Y-85907200D01*
X121717857Y-85907200D02*
X121575000Y-85954819D01*
X121575000Y-85954819D02*
X121336905Y-85954819D01*
X122241667Y-84954819D02*
X122860714Y-84954819D01*
X122860714Y-84954819D02*
X122527381Y-85335771D01*
X122527381Y-85335771D02*
X122670238Y-85335771D01*
X122670238Y-85335771D02*
X122765476Y-85383390D01*
X122765476Y-85383390D02*
X122813095Y-85431009D01*
X122813095Y-85431009D02*
X122860714Y-85526247D01*
X122860714Y-85526247D02*
X122860714Y-85764342D01*
X122860714Y-85764342D02*
X122813095Y-85859580D01*
X122813095Y-85859580D02*
X122765476Y-85907200D01*
X122765476Y-85907200D02*
X122670238Y-85954819D01*
X122670238Y-85954819D02*
X122384524Y-85954819D01*
X122384524Y-85954819D02*
X122289286Y-85907200D01*
X122289286Y-85907200D02*
X122241667Y-85859580D01*
X162008333Y-103254819D02*
X161675000Y-102778628D01*
X161436905Y-103254819D02*
X161436905Y-102254819D01*
X161436905Y-102254819D02*
X161817857Y-102254819D01*
X161817857Y-102254819D02*
X161913095Y-102302438D01*
X161913095Y-102302438D02*
X161960714Y-102350057D01*
X161960714Y-102350057D02*
X162008333Y-102445295D01*
X162008333Y-102445295D02*
X162008333Y-102588152D01*
X162008333Y-102588152D02*
X161960714Y-102683390D01*
X161960714Y-102683390D02*
X161913095Y-102731009D01*
X161913095Y-102731009D02*
X161817857Y-102778628D01*
X161817857Y-102778628D02*
X161436905Y-102778628D01*
X162865476Y-102254819D02*
X162675000Y-102254819D01*
X162675000Y-102254819D02*
X162579762Y-102302438D01*
X162579762Y-102302438D02*
X162532143Y-102350057D01*
X162532143Y-102350057D02*
X162436905Y-102492914D01*
X162436905Y-102492914D02*
X162389286Y-102683390D01*
X162389286Y-102683390D02*
X162389286Y-103064342D01*
X162389286Y-103064342D02*
X162436905Y-103159580D01*
X162436905Y-103159580D02*
X162484524Y-103207200D01*
X162484524Y-103207200D02*
X162579762Y-103254819D01*
X162579762Y-103254819D02*
X162770238Y-103254819D01*
X162770238Y-103254819D02*
X162865476Y-103207200D01*
X162865476Y-103207200D02*
X162913095Y-103159580D01*
X162913095Y-103159580D02*
X162960714Y-103064342D01*
X162960714Y-103064342D02*
X162960714Y-102826247D01*
X162960714Y-102826247D02*
X162913095Y-102731009D01*
X162913095Y-102731009D02*
X162865476Y-102683390D01*
X162865476Y-102683390D02*
X162770238Y-102635771D01*
X162770238Y-102635771D02*
X162579762Y-102635771D01*
X162579762Y-102635771D02*
X162484524Y-102683390D01*
X162484524Y-102683390D02*
X162436905Y-102731009D01*
X162436905Y-102731009D02*
X162389286Y-102826247D01*
X122908333Y-80359580D02*
X122860714Y-80407200D01*
X122860714Y-80407200D02*
X122717857Y-80454819D01*
X122717857Y-80454819D02*
X122622619Y-80454819D01*
X122622619Y-80454819D02*
X122479762Y-80407200D01*
X122479762Y-80407200D02*
X122384524Y-80311961D01*
X122384524Y-80311961D02*
X122336905Y-80216723D01*
X122336905Y-80216723D02*
X122289286Y-80026247D01*
X122289286Y-80026247D02*
X122289286Y-79883390D01*
X122289286Y-79883390D02*
X122336905Y-79692914D01*
X122336905Y-79692914D02*
X122384524Y-79597676D01*
X122384524Y-79597676D02*
X122479762Y-79502438D01*
X122479762Y-79502438D02*
X122622619Y-79454819D01*
X122622619Y-79454819D02*
X122717857Y-79454819D01*
X122717857Y-79454819D02*
X122860714Y-79502438D01*
X122860714Y-79502438D02*
X122908333Y-79550057D01*
X123813095Y-79454819D02*
X123336905Y-79454819D01*
X123336905Y-79454819D02*
X123289286Y-79931009D01*
X123289286Y-79931009D02*
X123336905Y-79883390D01*
X123336905Y-79883390D02*
X123432143Y-79835771D01*
X123432143Y-79835771D02*
X123670238Y-79835771D01*
X123670238Y-79835771D02*
X123765476Y-79883390D01*
X123765476Y-79883390D02*
X123813095Y-79931009D01*
X123813095Y-79931009D02*
X123860714Y-80026247D01*
X123860714Y-80026247D02*
X123860714Y-80264342D01*
X123860714Y-80264342D02*
X123813095Y-80359580D01*
X123813095Y-80359580D02*
X123765476Y-80407200D01*
X123765476Y-80407200D02*
X123670238Y-80454819D01*
X123670238Y-80454819D02*
X123432143Y-80454819D01*
X123432143Y-80454819D02*
X123336905Y-80407200D01*
X123336905Y-80407200D02*
X123289286Y-80359580D01*
X155797619Y-41325866D02*
X156559524Y-41325866D01*
X156178571Y-41706819D02*
X156178571Y-40944914D01*
X157083333Y-41706819D02*
X157273809Y-41706819D01*
X157273809Y-41706819D02*
X157369047Y-41659200D01*
X157369047Y-41659200D02*
X157416666Y-41611580D01*
X157416666Y-41611580D02*
X157511904Y-41468723D01*
X157511904Y-41468723D02*
X157559523Y-41278247D01*
X157559523Y-41278247D02*
X157559523Y-40897295D01*
X157559523Y-40897295D02*
X157511904Y-40802057D01*
X157511904Y-40802057D02*
X157464285Y-40754438D01*
X157464285Y-40754438D02*
X157369047Y-40706819D01*
X157369047Y-40706819D02*
X157178571Y-40706819D01*
X157178571Y-40706819D02*
X157083333Y-40754438D01*
X157083333Y-40754438D02*
X157035714Y-40802057D01*
X157035714Y-40802057D02*
X156988095Y-40897295D01*
X156988095Y-40897295D02*
X156988095Y-41135390D01*
X156988095Y-41135390D02*
X157035714Y-41230628D01*
X157035714Y-41230628D02*
X157083333Y-41278247D01*
X157083333Y-41278247D02*
X157178571Y-41325866D01*
X157178571Y-41325866D02*
X157369047Y-41325866D01*
X157369047Y-41325866D02*
X157464285Y-41278247D01*
X157464285Y-41278247D02*
X157511904Y-41230628D01*
X157511904Y-41230628D02*
X157559523Y-41135390D01*
X157845238Y-40706819D02*
X158178571Y-41706819D01*
X158178571Y-41706819D02*
X158511904Y-40706819D01*
X159178571Y-41183009D02*
X159321428Y-41230628D01*
X159321428Y-41230628D02*
X159369047Y-41278247D01*
X159369047Y-41278247D02*
X159416666Y-41373485D01*
X159416666Y-41373485D02*
X159416666Y-41516342D01*
X159416666Y-41516342D02*
X159369047Y-41611580D01*
X159369047Y-41611580D02*
X159321428Y-41659200D01*
X159321428Y-41659200D02*
X159226190Y-41706819D01*
X159226190Y-41706819D02*
X158845238Y-41706819D01*
X158845238Y-41706819D02*
X158845238Y-40706819D01*
X158845238Y-40706819D02*
X159178571Y-40706819D01*
X159178571Y-40706819D02*
X159273809Y-40754438D01*
X159273809Y-40754438D02*
X159321428Y-40802057D01*
X159321428Y-40802057D02*
X159369047Y-40897295D01*
X159369047Y-40897295D02*
X159369047Y-40992533D01*
X159369047Y-40992533D02*
X159321428Y-41087771D01*
X159321428Y-41087771D02*
X159273809Y-41135390D01*
X159273809Y-41135390D02*
X159178571Y-41183009D01*
X159178571Y-41183009D02*
X158845238Y-41183009D01*
X159797619Y-41421104D02*
X160273809Y-41421104D01*
X159702381Y-41706819D02*
X160035714Y-40706819D01*
X160035714Y-40706819D02*
X160369047Y-41706819D01*
X160559524Y-40706819D02*
X161130952Y-40706819D01*
X160845238Y-41706819D02*
X160845238Y-40706819D01*
X161321429Y-40706819D02*
X161892857Y-40706819D01*
X161607143Y-41706819D02*
X161607143Y-40706819D01*
X162750000Y-41706819D02*
X162178572Y-41706819D01*
X162464286Y-41706819D02*
X162464286Y-40706819D01*
X162464286Y-40706819D02*
X162369048Y-40849676D01*
X162369048Y-40849676D02*
X162273810Y-40944914D01*
X162273810Y-40944914D02*
X162178572Y-40992533D01*
X140857142Y-78704819D02*
X140523809Y-78228628D01*
X140285714Y-78704819D02*
X140285714Y-77704819D01*
X140285714Y-77704819D02*
X140666666Y-77704819D01*
X140666666Y-77704819D02*
X140761904Y-77752438D01*
X140761904Y-77752438D02*
X140809523Y-77800057D01*
X140809523Y-77800057D02*
X140857142Y-77895295D01*
X140857142Y-77895295D02*
X140857142Y-78038152D01*
X140857142Y-78038152D02*
X140809523Y-78133390D01*
X140809523Y-78133390D02*
X140761904Y-78181009D01*
X140761904Y-78181009D02*
X140666666Y-78228628D01*
X140666666Y-78228628D02*
X140285714Y-78228628D01*
X141809523Y-78704819D02*
X141238095Y-78704819D01*
X141523809Y-78704819D02*
X141523809Y-77704819D01*
X141523809Y-77704819D02*
X141428571Y-77847676D01*
X141428571Y-77847676D02*
X141333333Y-77942914D01*
X141333333Y-77942914D02*
X141238095Y-77990533D01*
X142142857Y-77704819D02*
X142761904Y-77704819D01*
X142761904Y-77704819D02*
X142428571Y-78085771D01*
X142428571Y-78085771D02*
X142571428Y-78085771D01*
X142571428Y-78085771D02*
X142666666Y-78133390D01*
X142666666Y-78133390D02*
X142714285Y-78181009D01*
X142714285Y-78181009D02*
X142761904Y-78276247D01*
X142761904Y-78276247D02*
X142761904Y-78514342D01*
X142761904Y-78514342D02*
X142714285Y-78609580D01*
X142714285Y-78609580D02*
X142666666Y-78657200D01*
X142666666Y-78657200D02*
X142571428Y-78704819D01*
X142571428Y-78704819D02*
X142285714Y-78704819D01*
X142285714Y-78704819D02*
X142190476Y-78657200D01*
X142190476Y-78657200D02*
X142142857Y-78609580D01*
X147904762Y-95004819D02*
X148476190Y-95004819D01*
X148190476Y-96004819D02*
X148190476Y-95004819D01*
X148952381Y-96004819D02*
X148857143Y-95957200D01*
X148857143Y-95957200D02*
X148809524Y-95909580D01*
X148809524Y-95909580D02*
X148761905Y-95814342D01*
X148761905Y-95814342D02*
X148761905Y-95528628D01*
X148761905Y-95528628D02*
X148809524Y-95433390D01*
X148809524Y-95433390D02*
X148857143Y-95385771D01*
X148857143Y-95385771D02*
X148952381Y-95338152D01*
X148952381Y-95338152D02*
X149095238Y-95338152D01*
X149095238Y-95338152D02*
X149190476Y-95385771D01*
X149190476Y-95385771D02*
X149238095Y-95433390D01*
X149238095Y-95433390D02*
X149285714Y-95528628D01*
X149285714Y-95528628D02*
X149285714Y-95814342D01*
X149285714Y-95814342D02*
X149238095Y-95909580D01*
X149238095Y-95909580D02*
X149190476Y-95957200D01*
X149190476Y-95957200D02*
X149095238Y-96004819D01*
X149095238Y-96004819D02*
X148952381Y-96004819D01*
X149714286Y-95338152D02*
X149714286Y-96004819D01*
X149714286Y-95433390D02*
X149761905Y-95385771D01*
X149761905Y-95385771D02*
X149857143Y-95338152D01*
X149857143Y-95338152D02*
X150000000Y-95338152D01*
X150000000Y-95338152D02*
X150095238Y-95385771D01*
X150095238Y-95385771D02*
X150142857Y-95481009D01*
X150142857Y-95481009D02*
X150142857Y-96004819D01*
X151000000Y-95957200D02*
X150904762Y-96004819D01*
X150904762Y-96004819D02*
X150714286Y-96004819D01*
X150714286Y-96004819D02*
X150619048Y-95957200D01*
X150619048Y-95957200D02*
X150571429Y-95861961D01*
X150571429Y-95861961D02*
X150571429Y-95481009D01*
X150571429Y-95481009D02*
X150619048Y-95385771D01*
X150619048Y-95385771D02*
X150714286Y-95338152D01*
X150714286Y-95338152D02*
X150904762Y-95338152D01*
X150904762Y-95338152D02*
X151000000Y-95385771D01*
X151000000Y-95385771D02*
X151047619Y-95481009D01*
X151047619Y-95481009D02*
X151047619Y-95576247D01*
X151047619Y-95576247D02*
X150571429Y-95671485D01*
X152000000Y-96004819D02*
X151428572Y-96004819D01*
X151714286Y-96004819D02*
X151714286Y-95004819D01*
X151714286Y-95004819D02*
X151619048Y-95147676D01*
X151619048Y-95147676D02*
X151523810Y-95242914D01*
X151523810Y-95242914D02*
X151428572Y-95290533D01*
X139583333Y-52279819D02*
X139250000Y-51803628D01*
X139011905Y-52279819D02*
X139011905Y-51279819D01*
X139011905Y-51279819D02*
X139392857Y-51279819D01*
X139392857Y-51279819D02*
X139488095Y-51327438D01*
X139488095Y-51327438D02*
X139535714Y-51375057D01*
X139535714Y-51375057D02*
X139583333Y-51470295D01*
X139583333Y-51470295D02*
X139583333Y-51613152D01*
X139583333Y-51613152D02*
X139535714Y-51708390D01*
X139535714Y-51708390D02*
X139488095Y-51756009D01*
X139488095Y-51756009D02*
X139392857Y-51803628D01*
X139392857Y-51803628D02*
X139011905Y-51803628D01*
X139916667Y-51279819D02*
X140535714Y-51279819D01*
X140535714Y-51279819D02*
X140202381Y-51660771D01*
X140202381Y-51660771D02*
X140345238Y-51660771D01*
X140345238Y-51660771D02*
X140440476Y-51708390D01*
X140440476Y-51708390D02*
X140488095Y-51756009D01*
X140488095Y-51756009D02*
X140535714Y-51851247D01*
X140535714Y-51851247D02*
X140535714Y-52089342D01*
X140535714Y-52089342D02*
X140488095Y-52184580D01*
X140488095Y-52184580D02*
X140440476Y-52232200D01*
X140440476Y-52232200D02*
X140345238Y-52279819D01*
X140345238Y-52279819D02*
X140059524Y-52279819D01*
X140059524Y-52279819D02*
X139964286Y-52232200D01*
X139964286Y-52232200D02*
X139916667Y-52184580D01*
X166333333Y-136704819D02*
X166000000Y-136228628D01*
X165761905Y-136704819D02*
X165761905Y-135704819D01*
X165761905Y-135704819D02*
X166142857Y-135704819D01*
X166142857Y-135704819D02*
X166238095Y-135752438D01*
X166238095Y-135752438D02*
X166285714Y-135800057D01*
X166285714Y-135800057D02*
X166333333Y-135895295D01*
X166333333Y-135895295D02*
X166333333Y-136038152D01*
X166333333Y-136038152D02*
X166285714Y-136133390D01*
X166285714Y-136133390D02*
X166238095Y-136181009D01*
X166238095Y-136181009D02*
X166142857Y-136228628D01*
X166142857Y-136228628D02*
X165761905Y-136228628D01*
X167333333Y-136609580D02*
X167285714Y-136657200D01*
X167285714Y-136657200D02*
X167142857Y-136704819D01*
X167142857Y-136704819D02*
X167047619Y-136704819D01*
X167047619Y-136704819D02*
X166904762Y-136657200D01*
X166904762Y-136657200D02*
X166809524Y-136561961D01*
X166809524Y-136561961D02*
X166761905Y-136466723D01*
X166761905Y-136466723D02*
X166714286Y-136276247D01*
X166714286Y-136276247D02*
X166714286Y-136133390D01*
X166714286Y-136133390D02*
X166761905Y-135942914D01*
X166761905Y-135942914D02*
X166809524Y-135847676D01*
X166809524Y-135847676D02*
X166904762Y-135752438D01*
X166904762Y-135752438D02*
X167047619Y-135704819D01*
X167047619Y-135704819D02*
X167142857Y-135704819D01*
X167142857Y-135704819D02*
X167285714Y-135752438D01*
X167285714Y-135752438D02*
X167333333Y-135800057D01*
X168285714Y-136704819D02*
X167714286Y-136704819D01*
X168000000Y-136704819D02*
X168000000Y-135704819D01*
X168000000Y-135704819D02*
X167904762Y-135847676D01*
X167904762Y-135847676D02*
X167809524Y-135942914D01*
X167809524Y-135942914D02*
X167714286Y-135990533D01*
X162008333Y-99734819D02*
X161675000Y-99258628D01*
X161436905Y-99734819D02*
X161436905Y-98734819D01*
X161436905Y-98734819D02*
X161817857Y-98734819D01*
X161817857Y-98734819D02*
X161913095Y-98782438D01*
X161913095Y-98782438D02*
X161960714Y-98830057D01*
X161960714Y-98830057D02*
X162008333Y-98925295D01*
X162008333Y-98925295D02*
X162008333Y-99068152D01*
X162008333Y-99068152D02*
X161960714Y-99163390D01*
X161960714Y-99163390D02*
X161913095Y-99211009D01*
X161913095Y-99211009D02*
X161817857Y-99258628D01*
X161817857Y-99258628D02*
X161436905Y-99258628D01*
X162865476Y-99068152D02*
X162865476Y-99734819D01*
X162627381Y-98687200D02*
X162389286Y-99401485D01*
X162389286Y-99401485D02*
X163008333Y-99401485D01*
X122908333Y-76954819D02*
X122575000Y-76478628D01*
X122336905Y-76954819D02*
X122336905Y-75954819D01*
X122336905Y-75954819D02*
X122717857Y-75954819D01*
X122717857Y-75954819D02*
X122813095Y-76002438D01*
X122813095Y-76002438D02*
X122860714Y-76050057D01*
X122860714Y-76050057D02*
X122908333Y-76145295D01*
X122908333Y-76145295D02*
X122908333Y-76288152D01*
X122908333Y-76288152D02*
X122860714Y-76383390D01*
X122860714Y-76383390D02*
X122813095Y-76431009D01*
X122813095Y-76431009D02*
X122717857Y-76478628D01*
X122717857Y-76478628D02*
X122336905Y-76478628D01*
X123241667Y-75954819D02*
X123908333Y-75954819D01*
X123908333Y-75954819D02*
X123479762Y-76954819D01*
X139583333Y-50529819D02*
X139250000Y-50053628D01*
X139011905Y-50529819D02*
X139011905Y-49529819D01*
X139011905Y-49529819D02*
X139392857Y-49529819D01*
X139392857Y-49529819D02*
X139488095Y-49577438D01*
X139488095Y-49577438D02*
X139535714Y-49625057D01*
X139535714Y-49625057D02*
X139583333Y-49720295D01*
X139583333Y-49720295D02*
X139583333Y-49863152D01*
X139583333Y-49863152D02*
X139535714Y-49958390D01*
X139535714Y-49958390D02*
X139488095Y-50006009D01*
X139488095Y-50006009D02*
X139392857Y-50053628D01*
X139392857Y-50053628D02*
X139011905Y-50053628D01*
X139964286Y-49625057D02*
X140011905Y-49577438D01*
X140011905Y-49577438D02*
X140107143Y-49529819D01*
X140107143Y-49529819D02*
X140345238Y-49529819D01*
X140345238Y-49529819D02*
X140440476Y-49577438D01*
X140440476Y-49577438D02*
X140488095Y-49625057D01*
X140488095Y-49625057D02*
X140535714Y-49720295D01*
X140535714Y-49720295D02*
X140535714Y-49815533D01*
X140535714Y-49815533D02*
X140488095Y-49958390D01*
X140488095Y-49958390D02*
X139916667Y-50529819D01*
X139916667Y-50529819D02*
X140535714Y-50529819D01*
X127408333Y-105109580D02*
X127360714Y-105157200D01*
X127360714Y-105157200D02*
X127217857Y-105204819D01*
X127217857Y-105204819D02*
X127122619Y-105204819D01*
X127122619Y-105204819D02*
X126979762Y-105157200D01*
X126979762Y-105157200D02*
X126884524Y-105061961D01*
X126884524Y-105061961D02*
X126836905Y-104966723D01*
X126836905Y-104966723D02*
X126789286Y-104776247D01*
X126789286Y-104776247D02*
X126789286Y-104633390D01*
X126789286Y-104633390D02*
X126836905Y-104442914D01*
X126836905Y-104442914D02*
X126884524Y-104347676D01*
X126884524Y-104347676D02*
X126979762Y-104252438D01*
X126979762Y-104252438D02*
X127122619Y-104204819D01*
X127122619Y-104204819D02*
X127217857Y-104204819D01*
X127217857Y-104204819D02*
X127360714Y-104252438D01*
X127360714Y-104252438D02*
X127408333Y-104300057D01*
X127884524Y-105204819D02*
X128075000Y-105204819D01*
X128075000Y-105204819D02*
X128170238Y-105157200D01*
X128170238Y-105157200D02*
X128217857Y-105109580D01*
X128217857Y-105109580D02*
X128313095Y-104966723D01*
X128313095Y-104966723D02*
X128360714Y-104776247D01*
X128360714Y-104776247D02*
X128360714Y-104395295D01*
X128360714Y-104395295D02*
X128313095Y-104300057D01*
X128313095Y-104300057D02*
X128265476Y-104252438D01*
X128265476Y-104252438D02*
X128170238Y-104204819D01*
X128170238Y-104204819D02*
X127979762Y-104204819D01*
X127979762Y-104204819D02*
X127884524Y-104252438D01*
X127884524Y-104252438D02*
X127836905Y-104300057D01*
X127836905Y-104300057D02*
X127789286Y-104395295D01*
X127789286Y-104395295D02*
X127789286Y-104633390D01*
X127789286Y-104633390D02*
X127836905Y-104728628D01*
X127836905Y-104728628D02*
X127884524Y-104776247D01*
X127884524Y-104776247D02*
X127979762Y-104823866D01*
X127979762Y-104823866D02*
X128170238Y-104823866D01*
X128170238Y-104823866D02*
X128265476Y-104776247D01*
X128265476Y-104776247D02*
X128313095Y-104728628D01*
X128313095Y-104728628D02*
X128360714Y-104633390D01*
X166333333Y-134704819D02*
X166000000Y-134228628D01*
X165761905Y-134704819D02*
X165761905Y-133704819D01*
X165761905Y-133704819D02*
X166142857Y-133704819D01*
X166142857Y-133704819D02*
X166238095Y-133752438D01*
X166238095Y-133752438D02*
X166285714Y-133800057D01*
X166285714Y-133800057D02*
X166333333Y-133895295D01*
X166333333Y-133895295D02*
X166333333Y-134038152D01*
X166333333Y-134038152D02*
X166285714Y-134133390D01*
X166285714Y-134133390D02*
X166238095Y-134181009D01*
X166238095Y-134181009D02*
X166142857Y-134228628D01*
X166142857Y-134228628D02*
X165761905Y-134228628D01*
X167285714Y-134704819D02*
X166714286Y-134704819D01*
X167000000Y-134704819D02*
X167000000Y-133704819D01*
X167000000Y-133704819D02*
X166904762Y-133847676D01*
X166904762Y-133847676D02*
X166809524Y-133942914D01*
X166809524Y-133942914D02*
X166714286Y-133990533D01*
X131238095Y-74554819D02*
X131238095Y-75364342D01*
X131238095Y-75364342D02*
X131285714Y-75459580D01*
X131285714Y-75459580D02*
X131333333Y-75507200D01*
X131333333Y-75507200D02*
X131428571Y-75554819D01*
X131428571Y-75554819D02*
X131619047Y-75554819D01*
X131619047Y-75554819D02*
X131714285Y-75507200D01*
X131714285Y-75507200D02*
X131761904Y-75459580D01*
X131761904Y-75459580D02*
X131809523Y-75364342D01*
X131809523Y-75364342D02*
X131809523Y-74554819D01*
X132809523Y-75554819D02*
X132238095Y-75554819D01*
X132523809Y-75554819D02*
X132523809Y-74554819D01*
X132523809Y-74554819D02*
X132428571Y-74697676D01*
X132428571Y-74697676D02*
X132333333Y-74792914D01*
X132333333Y-74792914D02*
X132238095Y-74840533D01*
%TO.C,SW1*%
D10*
X163150000Y-79400000D02*
X169850000Y-79400000D01*
X169850000Y-92200000D01*
X163150000Y-92200000D01*
X163150000Y-79400000D01*
D12*
%TO.C,CP2*%
X139225000Y-86695225D02*
X139225000Y-87195225D01*
X139475000Y-86945225D02*
X138975000Y-86945225D01*
X140330000Y-89500000D02*
X135170000Y-89500000D01*
X140330000Y-89540000D02*
X135170000Y-89540000D01*
X140329000Y-89580000D02*
X135171000Y-89580000D01*
X140327000Y-89620000D02*
X135173000Y-89620000D01*
X140325000Y-89660000D02*
X135175000Y-89660000D01*
X140322000Y-89700000D02*
X135178000Y-89700000D01*
X140319000Y-89740000D02*
X138790000Y-89740000D01*
X136710000Y-89740000D02*
X135181000Y-89740000D01*
X140315000Y-89780000D02*
X138790000Y-89780000D01*
X136710000Y-89780000D02*
X135185000Y-89780000D01*
X140310000Y-89820000D02*
X138790000Y-89820000D01*
X136710000Y-89820000D02*
X135190000Y-89820000D01*
X140305000Y-89860000D02*
X138790000Y-89860000D01*
X136710000Y-89860000D02*
X135195000Y-89860000D01*
X140299000Y-89900000D02*
X138790000Y-89900000D01*
X136710000Y-89900000D02*
X135201000Y-89900000D01*
X140293000Y-89940000D02*
X138790000Y-89940000D01*
X136710000Y-89940000D02*
X135207000Y-89940000D01*
X140286000Y-89980000D02*
X138790000Y-89980000D01*
X136710000Y-89980000D02*
X135214000Y-89980000D01*
X140278000Y-90020000D02*
X138790000Y-90020000D01*
X136710000Y-90020000D02*
X135222000Y-90020000D01*
X140269000Y-90060000D02*
X138790000Y-90060000D01*
X136710000Y-90060000D02*
X135231000Y-90060000D01*
X140260000Y-90100000D02*
X138790000Y-90100000D01*
X136710000Y-90100000D02*
X135240000Y-90100000D01*
X140251000Y-90140000D02*
X138790000Y-90140000D01*
X136710000Y-90140000D02*
X135249000Y-90140000D01*
X140240000Y-90180000D02*
X138790000Y-90180000D01*
X136710000Y-90180000D02*
X135260000Y-90180000D01*
X140229000Y-90220000D02*
X138790000Y-90220000D01*
X136710000Y-90220000D02*
X135271000Y-90220000D01*
X140217000Y-90260000D02*
X138790000Y-90260000D01*
X136710000Y-90260000D02*
X135283000Y-90260000D01*
X140205000Y-90300000D02*
X138790000Y-90300000D01*
X136710000Y-90300000D02*
X135295000Y-90300000D01*
X140192000Y-90340000D02*
X138790000Y-90340000D01*
X136710000Y-90340000D02*
X135308000Y-90340000D01*
X140178000Y-90380000D02*
X138790000Y-90380000D01*
X136710000Y-90380000D02*
X135322000Y-90380000D01*
X140163000Y-90420000D02*
X138790000Y-90420000D01*
X136710000Y-90420000D02*
X135337000Y-90420000D01*
X140148000Y-90460000D02*
X138790000Y-90460000D01*
X136710000Y-90460000D02*
X135352000Y-90460000D01*
X140132000Y-90500000D02*
X138790000Y-90500000D01*
X136710000Y-90500000D02*
X135368000Y-90500000D01*
X140115000Y-90540000D02*
X138790000Y-90540000D01*
X136710000Y-90540000D02*
X135385000Y-90540000D01*
X140097000Y-90580000D02*
X138790000Y-90580000D01*
X136710000Y-90580000D02*
X135403000Y-90580000D01*
X140079000Y-90620000D02*
X138790000Y-90620000D01*
X136710000Y-90620000D02*
X135421000Y-90620000D01*
X140059000Y-90660000D02*
X138790000Y-90660000D01*
X136710000Y-90660000D02*
X135441000Y-90660000D01*
X140039000Y-90700000D02*
X138790000Y-90700000D01*
X136710000Y-90700000D02*
X135461000Y-90700000D01*
X140018000Y-90740000D02*
X138790000Y-90740000D01*
X136710000Y-90740000D02*
X135482000Y-90740000D01*
X139996000Y-90780000D02*
X138790000Y-90780000D01*
X136710000Y-90780000D02*
X135504000Y-90780000D01*
X139973000Y-90820000D02*
X138790000Y-90820000D01*
X136710000Y-90820000D02*
X135527000Y-90820000D01*
X139949000Y-90860000D02*
X138790000Y-90860000D01*
X136710000Y-90860000D02*
X135551000Y-90860000D01*
X139925000Y-90900000D02*
X138790000Y-90900000D01*
X136710000Y-90900000D02*
X135575000Y-90900000D01*
X139899000Y-90940000D02*
X138790000Y-90940000D01*
X136710000Y-90940000D02*
X135601000Y-90940000D01*
X139872000Y-90980000D02*
X138790000Y-90980000D01*
X136710000Y-90980000D02*
X135628000Y-90980000D01*
X139844000Y-91020000D02*
X138790000Y-91020000D01*
X136710000Y-91020000D02*
X135656000Y-91020000D01*
X139815000Y-91060000D02*
X138790000Y-91060000D01*
X136710000Y-91060000D02*
X135685000Y-91060000D01*
X139785000Y-91100000D02*
X138790000Y-91100000D01*
X136710000Y-91100000D02*
X135715000Y-91100000D01*
X139753000Y-91140000D02*
X138790000Y-91140000D01*
X136710000Y-91140000D02*
X135747000Y-91140000D01*
X139720000Y-91180000D02*
X138790000Y-91180000D01*
X136710000Y-91180000D02*
X135780000Y-91180000D01*
X139686000Y-91220000D02*
X138790000Y-91220000D01*
X136710000Y-91220000D02*
X135814000Y-91220000D01*
X139651000Y-91260000D02*
X138790000Y-91260000D01*
X136710000Y-91260000D02*
X135849000Y-91260000D01*
X139614000Y-91300000D02*
X138790000Y-91300000D01*
X136710000Y-91300000D02*
X135886000Y-91300000D01*
X139575000Y-91340000D02*
X138790000Y-91340000D01*
X136710000Y-91340000D02*
X135925000Y-91340000D01*
X139535000Y-91380000D02*
X138790000Y-91380000D01*
X136710000Y-91380000D02*
X135965000Y-91380000D01*
X139493000Y-91420000D02*
X138790000Y-91420000D01*
X136710000Y-91420000D02*
X136007000Y-91420000D01*
X139449000Y-91460000D02*
X138790000Y-91460000D01*
X136710000Y-91460000D02*
X136051000Y-91460000D01*
X139402000Y-91500000D02*
X138790000Y-91500000D01*
X136710000Y-91500000D02*
X136098000Y-91500000D01*
X139354000Y-91540000D02*
X138790000Y-91540000D01*
X136710000Y-91540000D02*
X136146000Y-91540000D01*
X139303000Y-91580000D02*
X138790000Y-91580000D01*
X136710000Y-91580000D02*
X136197000Y-91580000D01*
X139249000Y-91620000D02*
X138790000Y-91620000D01*
X136710000Y-91620000D02*
X136251000Y-91620000D01*
X139193000Y-91660000D02*
X138790000Y-91660000D01*
X136710000Y-91660000D02*
X136307000Y-91660000D01*
X139133000Y-91700000D02*
X138790000Y-91700000D01*
X136710000Y-91700000D02*
X136367000Y-91700000D01*
X139069000Y-91740000D02*
X138790000Y-91740000D01*
X136710000Y-91740000D02*
X136431000Y-91740000D01*
X139001000Y-91780000D02*
X138790000Y-91780000D01*
X136710000Y-91780000D02*
X136499000Y-91780000D01*
X138927000Y-91820000D02*
X136573000Y-91820000D01*
X138848000Y-91860000D02*
X136652000Y-91860000D01*
X138761000Y-91900000D02*
X136739000Y-91900000D01*
X138664000Y-91940000D02*
X136836000Y-91940000D01*
X138555000Y-91980000D02*
X136945000Y-91980000D01*
X138427000Y-92020000D02*
X137073000Y-92020000D01*
X138267000Y-92060000D02*
X137233000Y-92060000D01*
X138033000Y-92100000D02*
X137467000Y-92100000D01*
X140370000Y-89500000D02*
G75*
G02*
X135130000Y-89500000I-2620000J0D01*
G01*
X135130000Y-89500000D02*
G75*
G02*
X140370000Y-89500000I2620000J0D01*
G01*
%TO.C,CP1*%
X132975000Y-86695225D02*
X132975000Y-87195225D01*
X133225000Y-86945225D02*
X132725000Y-86945225D01*
X134080000Y-89500000D02*
X128920000Y-89500000D01*
X134080000Y-89540000D02*
X128920000Y-89540000D01*
X134079000Y-89580000D02*
X128921000Y-89580000D01*
X134077000Y-89620000D02*
X128923000Y-89620000D01*
X134075000Y-89660000D02*
X128925000Y-89660000D01*
X134072000Y-89700000D02*
X128928000Y-89700000D01*
X134069000Y-89740000D02*
X132540000Y-89740000D01*
X130460000Y-89740000D02*
X128931000Y-89740000D01*
X134065000Y-89780000D02*
X132540000Y-89780000D01*
X130460000Y-89780000D02*
X128935000Y-89780000D01*
X134060000Y-89820000D02*
X132540000Y-89820000D01*
X130460000Y-89820000D02*
X128940000Y-89820000D01*
X134055000Y-89860000D02*
X132540000Y-89860000D01*
X130460000Y-89860000D02*
X128945000Y-89860000D01*
X134049000Y-89900000D02*
X132540000Y-89900000D01*
X130460000Y-89900000D02*
X128951000Y-89900000D01*
X134043000Y-89940000D02*
X132540000Y-89940000D01*
X130460000Y-89940000D02*
X128957000Y-89940000D01*
X134036000Y-89980000D02*
X132540000Y-89980000D01*
X130460000Y-89980000D02*
X128964000Y-89980000D01*
X134028000Y-90020000D02*
X132540000Y-90020000D01*
X130460000Y-90020000D02*
X128972000Y-90020000D01*
X134019000Y-90060000D02*
X132540000Y-90060000D01*
X130460000Y-90060000D02*
X128981000Y-90060000D01*
X134010000Y-90100000D02*
X132540000Y-90100000D01*
X130460000Y-90100000D02*
X128990000Y-90100000D01*
X134001000Y-90140000D02*
X132540000Y-90140000D01*
X130460000Y-90140000D02*
X128999000Y-90140000D01*
X133990000Y-90180000D02*
X132540000Y-90180000D01*
X130460000Y-90180000D02*
X129010000Y-90180000D01*
X133979000Y-90220000D02*
X132540000Y-90220000D01*
X130460000Y-90220000D02*
X129021000Y-90220000D01*
X133967000Y-90260000D02*
X132540000Y-90260000D01*
X130460000Y-90260000D02*
X129033000Y-90260000D01*
X133955000Y-90300000D02*
X132540000Y-90300000D01*
X130460000Y-90300000D02*
X129045000Y-90300000D01*
X133942000Y-90340000D02*
X132540000Y-90340000D01*
X130460000Y-90340000D02*
X129058000Y-90340000D01*
X133928000Y-90380000D02*
X132540000Y-90380000D01*
X130460000Y-90380000D02*
X129072000Y-90380000D01*
X133913000Y-90420000D02*
X132540000Y-90420000D01*
X130460000Y-90420000D02*
X129087000Y-90420000D01*
X133898000Y-90460000D02*
X132540000Y-90460000D01*
X130460000Y-90460000D02*
X129102000Y-90460000D01*
X133882000Y-90500000D02*
X132540000Y-90500000D01*
X130460000Y-90500000D02*
X129118000Y-90500000D01*
X133865000Y-90540000D02*
X132540000Y-90540000D01*
X130460000Y-90540000D02*
X129135000Y-90540000D01*
X133847000Y-90580000D02*
X132540000Y-90580000D01*
X130460000Y-90580000D02*
X129153000Y-90580000D01*
X133829000Y-90620000D02*
X132540000Y-90620000D01*
X130460000Y-90620000D02*
X129171000Y-90620000D01*
X133809000Y-90660000D02*
X132540000Y-90660000D01*
X130460000Y-90660000D02*
X129191000Y-90660000D01*
X133789000Y-90700000D02*
X132540000Y-90700000D01*
X130460000Y-90700000D02*
X129211000Y-90700000D01*
X133768000Y-90740000D02*
X132540000Y-90740000D01*
X130460000Y-90740000D02*
X129232000Y-90740000D01*
X133746000Y-90780000D02*
X132540000Y-90780000D01*
X130460000Y-90780000D02*
X129254000Y-90780000D01*
X133723000Y-90820000D02*
X132540000Y-90820000D01*
X130460000Y-90820000D02*
X129277000Y-90820000D01*
X133699000Y-90860000D02*
X132540000Y-90860000D01*
X130460000Y-90860000D02*
X129301000Y-90860000D01*
X133675000Y-90900000D02*
X132540000Y-90900000D01*
X130460000Y-90900000D02*
X129325000Y-90900000D01*
X133649000Y-90940000D02*
X132540000Y-90940000D01*
X130460000Y-90940000D02*
X129351000Y-90940000D01*
X133622000Y-90980000D02*
X132540000Y-90980000D01*
X130460000Y-90980000D02*
X129378000Y-90980000D01*
X133594000Y-91020000D02*
X132540000Y-91020000D01*
X130460000Y-91020000D02*
X129406000Y-91020000D01*
X133565000Y-91060000D02*
X132540000Y-91060000D01*
X130460000Y-91060000D02*
X129435000Y-91060000D01*
X133535000Y-91100000D02*
X132540000Y-91100000D01*
X130460000Y-91100000D02*
X129465000Y-91100000D01*
X133503000Y-91140000D02*
X132540000Y-91140000D01*
X130460000Y-91140000D02*
X129497000Y-91140000D01*
X133470000Y-91180000D02*
X132540000Y-91180000D01*
X130460000Y-91180000D02*
X129530000Y-91180000D01*
X133436000Y-91220000D02*
X132540000Y-91220000D01*
X130460000Y-91220000D02*
X129564000Y-91220000D01*
X133401000Y-91260000D02*
X132540000Y-91260000D01*
X130460000Y-91260000D02*
X129599000Y-91260000D01*
X133364000Y-91300000D02*
X132540000Y-91300000D01*
X130460000Y-91300000D02*
X129636000Y-91300000D01*
X133325000Y-91340000D02*
X132540000Y-91340000D01*
X130460000Y-91340000D02*
X129675000Y-91340000D01*
X133285000Y-91380000D02*
X132540000Y-91380000D01*
X130460000Y-91380000D02*
X129715000Y-91380000D01*
X133243000Y-91420000D02*
X132540000Y-91420000D01*
X130460000Y-91420000D02*
X129757000Y-91420000D01*
X133199000Y-91460000D02*
X132540000Y-91460000D01*
X130460000Y-91460000D02*
X129801000Y-91460000D01*
X133152000Y-91500000D02*
X132540000Y-91500000D01*
X130460000Y-91500000D02*
X129848000Y-91500000D01*
X133104000Y-91540000D02*
X132540000Y-91540000D01*
X130460000Y-91540000D02*
X129896000Y-91540000D01*
X133053000Y-91580000D02*
X132540000Y-91580000D01*
X130460000Y-91580000D02*
X129947000Y-91580000D01*
X132999000Y-91620000D02*
X132540000Y-91620000D01*
X130460000Y-91620000D02*
X130001000Y-91620000D01*
X132943000Y-91660000D02*
X132540000Y-91660000D01*
X130460000Y-91660000D02*
X130057000Y-91660000D01*
X132883000Y-91700000D02*
X132540000Y-91700000D01*
X130460000Y-91700000D02*
X130117000Y-91700000D01*
X132819000Y-91740000D02*
X132540000Y-91740000D01*
X130460000Y-91740000D02*
X130181000Y-91740000D01*
X132751000Y-91780000D02*
X132540000Y-91780000D01*
X130460000Y-91780000D02*
X130249000Y-91780000D01*
X132677000Y-91820000D02*
X130323000Y-91820000D01*
X132598000Y-91860000D02*
X130402000Y-91860000D01*
X132511000Y-91900000D02*
X130489000Y-91900000D01*
X132414000Y-91940000D02*
X130586000Y-91940000D01*
X132305000Y-91980000D02*
X130695000Y-91980000D01*
X132177000Y-92020000D02*
X130823000Y-92020000D01*
X132017000Y-92060000D02*
X130983000Y-92060000D01*
X131783000Y-92100000D02*
X131217000Y-92100000D01*
X134120000Y-89500000D02*
G75*
G02*
X128880000Y-89500000I-2620000J0D01*
G01*
X128880000Y-89500000D02*
G75*
G02*
X134120000Y-89500000I2620000J0D01*
G01*
%TO.C,R10*%
X138262742Y-72477500D02*
X138737258Y-72477500D01*
X138262742Y-73522500D02*
X138737258Y-73522500D01*
%TO.C,R9*%
X125337742Y-72477500D02*
X125812258Y-72477500D01*
X125337742Y-73522500D02*
X125812258Y-73522500D01*
%TO.C,D1*%
X174060000Y-133920000D02*
X174060000Y-133764000D01*
X174060000Y-136236000D02*
X174060000Y-136080000D01*
X170828563Y-133920000D02*
G75*
G02*
X174060000Y-133764484I1671437J-1080000D01*
G01*
X171459039Y-133920000D02*
G75*
G02*
X173540961Y-133920000I1040961J-1080000D01*
G01*
X173540961Y-136080000D02*
G75*
G02*
X171459039Y-136080000I-1040961J1080000D01*
G01*
X174060000Y-136235516D02*
G75*
G02*
X170828563Y-136080000I-1560000J1235516D01*
G01*
%TO.C,Q1*%
X171250000Y-99490000D02*
X170600000Y-99490000D01*
X171250000Y-99490000D02*
X171900000Y-99490000D01*
X171250000Y-102610000D02*
X170600000Y-102610000D01*
X171250000Y-102610000D02*
X171900000Y-102610000D01*
X170087500Y-99540000D02*
X169847500Y-99210000D01*
X170327500Y-99210000D01*
X170087500Y-99540000D01*
G36*
X170087500Y-99540000D02*
G01*
X169847500Y-99210000D01*
X170327500Y-99210000D01*
X170087500Y-99540000D01*
G37*
%TO.C,R11*%
X138262742Y-74227500D02*
X138737258Y-74227500D01*
X138262742Y-75272500D02*
X138737258Y-75272500D01*
%TO.C,C3*%
X141788748Y-46840000D02*
X143211252Y-46840000D01*
X141788748Y-48660000D02*
X143211252Y-48660000D01*
%TO.C,C6*%
X125434420Y-77740000D02*
X125715580Y-77740000D01*
X125434420Y-78760000D02*
X125715580Y-78760000D01*
%TO.C,S1*%
D10*
X140250000Y-130700000D02*
X159750000Y-130700000D01*
X159750000Y-147700000D01*
X140250000Y-147700000D01*
X140250000Y-130700000D01*
D12*
%TO.C,R16*%
X124837742Y-100727500D02*
X125312258Y-100727500D01*
X124837742Y-101772500D02*
X125312258Y-101772500D01*
%TO.C,R12*%
X138262742Y-75977500D02*
X138737258Y-75977500D01*
X138262742Y-77022500D02*
X138737258Y-77022500D01*
%TO.C,C4*%
X164890580Y-104040000D02*
X164609420Y-104040000D01*
X164890580Y-105060000D02*
X164609420Y-105060000D01*
%TO.C,C8*%
X124934420Y-97240000D02*
X125215580Y-97240000D01*
X124934420Y-98260000D02*
X125215580Y-98260000D01*
%TO.C,D2*%
X140140000Y-41250000D02*
X140140000Y-43250000D01*
X140140000Y-41250000D02*
X144150000Y-41250000D01*
X140140000Y-43250000D02*
X144150000Y-43250000D01*
%TO.C,R8*%
X125337742Y-74227500D02*
X125812258Y-74227500D01*
X125337742Y-75272500D02*
X125812258Y-75272500D01*
%TO.C,C1*%
X141788748Y-44090000D02*
X143211252Y-44090000D01*
X141788748Y-45910000D02*
X143211252Y-45910000D01*
%TO.C,Distortion1*%
X128479000Y-54930000D02*
X138520000Y-54930000D01*
X128479000Y-58366000D02*
X128479000Y-54930000D01*
X128479000Y-67170000D02*
X128479000Y-62733000D01*
X128479000Y-67170000D02*
X129800000Y-67170000D01*
X132250000Y-67170000D02*
X132630000Y-67170000D01*
X134371000Y-67170000D02*
X135130000Y-67170000D01*
X136870000Y-67170000D02*
X138520000Y-67170000D01*
X138520000Y-58366000D02*
X138520000Y-54930000D01*
X138520000Y-67170000D02*
X138520000Y-62733000D01*
%TO.C,R15*%
X124837742Y-98977500D02*
X125312258Y-98977500D01*
X124837742Y-100022500D02*
X125312258Y-100022500D01*
%TO.C,R5*%
X164987258Y-100527500D02*
X164512742Y-100527500D01*
X164987258Y-101572500D02*
X164512742Y-101572500D01*
%TO.C,C2*%
X164890580Y-97040000D02*
X164609420Y-97040000D01*
X164890580Y-98060000D02*
X164609420Y-98060000D01*
%TO.C,C7*%
X138359420Y-81240000D02*
X138640580Y-81240000D01*
X138359420Y-82260000D02*
X138640580Y-82260000D01*
%TO.C,D4*%
X123215000Y-81750000D02*
X123215000Y-83750000D01*
X123215000Y-81750000D02*
X127225000Y-81750000D01*
X123215000Y-83750000D02*
X127225000Y-83750000D01*
%TO.C,-9VBATT1*%
X157800000Y-47550000D02*
X160700000Y-47550000D01*
X157800000Y-50450000D02*
X157800000Y-47550000D01*
X160700000Y-47550000D02*
X160700000Y-50450000D01*
X160700000Y-50450000D02*
X157800000Y-50450000D01*
%TO.C,RB1*%
X124837742Y-102477500D02*
X125312258Y-102477500D01*
X124837742Y-103522500D02*
X125312258Y-103522500D01*
%TO.C,R14*%
X138262742Y-79477500D02*
X138737258Y-79477500D01*
X138262742Y-80522500D02*
X138737258Y-80522500D01*
%TO.C,Level1*%
X161479000Y-54930000D02*
X171520000Y-54930000D01*
X161479000Y-58366000D02*
X161479000Y-54930000D01*
X161479000Y-67170000D02*
X161479000Y-62733000D01*
X161479000Y-67170000D02*
X162800000Y-67170000D01*
X165250000Y-67170000D02*
X165630000Y-67170000D01*
X167371000Y-67170000D02*
X168130000Y-67170000D01*
X169870000Y-67170000D02*
X171520000Y-67170000D01*
X171520000Y-58366000D02*
X171520000Y-54930000D01*
X171520000Y-67170000D02*
X171520000Y-62733000D01*
%TO.C,Q2*%
X131937500Y-99490000D02*
X131287500Y-99490000D01*
X131937500Y-99490000D02*
X132587500Y-99490000D01*
X131937500Y-102610000D02*
X131287500Y-102610000D01*
X131937500Y-102610000D02*
X132587500Y-102610000D01*
X130775000Y-99540000D02*
X130535000Y-99210000D01*
X131015000Y-99210000D01*
X130775000Y-99540000D01*
G36*
X130775000Y-99540000D02*
G01*
X130535000Y-99210000D01*
X131015000Y-99210000D01*
X130775000Y-99540000D01*
G37*
%TO.C,D3*%
X127935000Y-84500000D02*
X123925000Y-84500000D01*
X127935000Y-86500000D02*
X123925000Y-86500000D01*
X127935000Y-86500000D02*
X127935000Y-84500000D01*
%TO.C,R6*%
X164512742Y-102277500D02*
X164987258Y-102277500D01*
X164512742Y-103322500D02*
X164987258Y-103322500D01*
%TO.C,C5*%
X125715580Y-79490000D02*
X125434420Y-79490000D01*
X125715580Y-80510000D02*
X125434420Y-80510000D01*
%TO.C,+9VBATT1*%
X157800000Y-42050000D02*
X160700000Y-42050000D01*
X157800000Y-44950000D02*
X157800000Y-42050000D01*
X160700000Y-42050000D02*
X160700000Y-44950000D01*
X160700000Y-44950000D02*
X157800000Y-44950000D01*
%TO.C,R13*%
X138262742Y-77727500D02*
X138737258Y-77727500D01*
X138262742Y-78772500D02*
X138737258Y-78772500D01*
%TO.C,Tone1*%
X144979000Y-80430000D02*
X155020000Y-80430000D01*
X144979000Y-83866000D02*
X144979000Y-80430000D01*
X144979000Y-92670000D02*
X144979000Y-88233000D01*
X144979000Y-92670000D02*
X146300000Y-92670000D01*
X148750000Y-92670000D02*
X149130000Y-92670000D01*
X150871000Y-92670000D02*
X151630000Y-92670000D01*
X153370000Y-92670000D02*
X155020000Y-92670000D01*
X155020000Y-83866000D02*
X155020000Y-80430000D01*
X155020000Y-92670000D02*
X155020000Y-88233000D01*
%TO.C,R3*%
X142262742Y-51302500D02*
X142737258Y-51302500D01*
X142262742Y-52347500D02*
X142737258Y-52347500D01*
%TO.C,RC1*%
X163512742Y-135727500D02*
X163987258Y-135727500D01*
X163512742Y-136772500D02*
X163987258Y-136772500D01*
%TO.C,R4*%
X164512742Y-98767500D02*
X164987258Y-98767500D01*
X164512742Y-99812500D02*
X164987258Y-99812500D01*
%TO.C,R7*%
X125337742Y-75977500D02*
X125812258Y-75977500D01*
X125337742Y-77022500D02*
X125812258Y-77022500D01*
%TO.C,R2*%
X142262742Y-49552500D02*
X142737258Y-49552500D01*
X142262742Y-50597500D02*
X142737258Y-50597500D01*
%TO.C,C9*%
X124934420Y-104240000D02*
X125215580Y-104240000D01*
X124934420Y-105260000D02*
X125215580Y-105260000D01*
%TO.C,R1*%
X163987258Y-133727500D02*
X163512742Y-133727500D01*
X163987258Y-134772500D02*
X163512742Y-134772500D01*
%TO.C,U1*%
X132000000Y-75940000D02*
X130050000Y-75940000D01*
X132000000Y-75940000D02*
X133950000Y-75940000D01*
X132000000Y-81060000D02*
X130050000Y-81060000D01*
X132000000Y-81060000D02*
X133950000Y-81060000D01*
X129300000Y-76035000D02*
X129060000Y-75705000D01*
X129540000Y-75705000D01*
X129300000Y-76035000D01*
G36*
X129300000Y-76035000D02*
G01*
X129060000Y-75705000D01*
X129540000Y-75705000D01*
X129300000Y-76035000D01*
G37*
%TD*%
%LPC*%
D13*
%TO.C,SW1*%
X166500000Y-81100000D03*
X166500000Y-85800000D03*
X166500000Y-90500000D03*
%TD*%
D14*
%TO.C,CP2*%
X137750000Y-88250000D03*
D15*
X137750000Y-90750000D03*
%TD*%
D14*
%TO.C,CP1*%
X131500000Y-88250000D03*
D15*
X131500000Y-90750000D03*
%TD*%
D16*
%TO.C,R10*%
X137675000Y-73000000D03*
X139325000Y-73000000D03*
%TD*%
%TO.C,R9*%
X124750000Y-73000000D03*
X126400000Y-73000000D03*
%TD*%
D17*
%TO.C,D1*%
X173770000Y-135000000D03*
D18*
X171230000Y-135000000D03*
%TD*%
D19*
%TO.C,Q1*%
X170312500Y-100100000D03*
X170312500Y-102000000D03*
X172187500Y-101050000D03*
%TD*%
D16*
%TO.C,R11*%
X137675000Y-74750000D03*
X139325000Y-74750000D03*
%TD*%
D20*
%TO.C,C3*%
X141025000Y-47750000D03*
X143975000Y-47750000D03*
%TD*%
D21*
%TO.C,C6*%
X124800000Y-78250000D03*
X126350000Y-78250000D03*
%TD*%
D22*
%TO.C,S1*%
X144800000Y-134500000D03*
X144800000Y-139200000D03*
X144800000Y-143900000D03*
X150000000Y-134500000D03*
X150000000Y-139200000D03*
X150000000Y-143900000D03*
X155200000Y-134500000D03*
X155200000Y-139200000D03*
X155200000Y-143900000D03*
%TD*%
D16*
%TO.C,R16*%
X124250000Y-101250000D03*
X125900000Y-101250000D03*
%TD*%
%TO.C,R12*%
X137675000Y-76500000D03*
X139325000Y-76500000D03*
%TD*%
D23*
%TO.C,C4*%
X165525000Y-104550000D03*
X163975000Y-104550000D03*
%TD*%
D24*
%TO.C,H1*%
X163100000Y-145500000D03*
X163802944Y-143802944D03*
X163802944Y-147197056D03*
X165500000Y-143100000D03*
D25*
X165500000Y-145500000D03*
D24*
X165500000Y-147900000D03*
X167197056Y-143802944D03*
X167197056Y-147197056D03*
X167900000Y-145500000D03*
%TD*%
D21*
%TO.C,C8*%
X124300000Y-97750000D03*
X125850000Y-97750000D03*
%TD*%
D26*
%TO.C,D2*%
X140850000Y-42250000D03*
X144150000Y-42250000D03*
%TD*%
D16*
%TO.C,R8*%
X124750000Y-74750000D03*
X126400000Y-74750000D03*
%TD*%
D20*
%TO.C,C1*%
X141025000Y-45000000D03*
X143975000Y-45000000D03*
%TD*%
D17*
%TO.C,Distortion1*%
X131000000Y-68050000D03*
D18*
X133500000Y-68050000D03*
X136000000Y-68050000D03*
D27*
X128750000Y-60550000D03*
X138250000Y-60550000D03*
%TD*%
D16*
%TO.C,R15*%
X124250000Y-99500000D03*
X125900000Y-99500000D03*
%TD*%
D28*
%TO.C,R5*%
X165575000Y-101050000D03*
X163925000Y-101050000D03*
%TD*%
D23*
%TO.C,C2*%
X165525000Y-97550000D03*
X163975000Y-97550000D03*
%TD*%
D21*
%TO.C,C7*%
X137725000Y-81750000D03*
X139275000Y-81750000D03*
%TD*%
D26*
%TO.C,D4*%
X123925000Y-82750000D03*
X127225000Y-82750000D03*
%TD*%
D29*
%TO.C,-9VBATT1*%
X159250000Y-49000000D03*
%TD*%
D16*
%TO.C,RB1*%
X124250000Y-103000000D03*
X125900000Y-103000000D03*
%TD*%
D24*
%TO.C,H2*%
X163100000Y-44500000D03*
X163802944Y-42802944D03*
X163802944Y-46197056D03*
X165500000Y-42100000D03*
D25*
X165500000Y-44500000D03*
D24*
X165500000Y-46900000D03*
X167197056Y-42802944D03*
X167197056Y-46197056D03*
X167900000Y-44500000D03*
%TD*%
%TO.C,H4*%
X132100000Y-145500000D03*
X132802944Y-143802944D03*
X132802944Y-147197056D03*
X134500000Y-143100000D03*
D25*
X134500000Y-145500000D03*
D24*
X134500000Y-147900000D03*
X136197056Y-143802944D03*
X136197056Y-147197056D03*
X136900000Y-145500000D03*
%TD*%
D16*
%TO.C,R14*%
X137675000Y-80000000D03*
X139325000Y-80000000D03*
%TD*%
D17*
%TO.C,Level1*%
X164000000Y-68050000D03*
D18*
X166500000Y-68050000D03*
X169000000Y-68050000D03*
D27*
X161750000Y-60550000D03*
X171250000Y-60550000D03*
%TD*%
D19*
%TO.C,Q2*%
X131000000Y-100100000D03*
X131000000Y-102000000D03*
X132875000Y-101050000D03*
%TD*%
D30*
%TO.C,D3*%
X127225000Y-85500000D03*
X123925000Y-85500000D03*
%TD*%
D16*
%TO.C,R6*%
X163925000Y-102800000D03*
X165575000Y-102800000D03*
%TD*%
D23*
%TO.C,C5*%
X126350000Y-80000000D03*
X124800000Y-80000000D03*
%TD*%
D29*
%TO.C,+9VBATT1*%
X159250000Y-43500000D03*
%TD*%
D16*
%TO.C,R13*%
X137675000Y-78250000D03*
X139325000Y-78250000D03*
%TD*%
D17*
%TO.C,Tone1*%
X147500000Y-93550000D03*
D18*
X150000000Y-93550000D03*
X152500000Y-93550000D03*
D27*
X145250000Y-86050000D03*
X154750000Y-86050000D03*
%TD*%
D16*
%TO.C,R3*%
X141675000Y-51825000D03*
X143325000Y-51825000D03*
%TD*%
%TO.C,RC1*%
X162925000Y-136250000D03*
X164575000Y-136250000D03*
%TD*%
D24*
%TO.C,H3*%
X132100000Y-44500000D03*
X132802944Y-42802944D03*
X132802944Y-46197056D03*
X134500000Y-42100000D03*
D25*
X134500000Y-44500000D03*
D24*
X134500000Y-46900000D03*
X136197056Y-42802944D03*
X136197056Y-46197056D03*
X136900000Y-44500000D03*
%TD*%
D16*
%TO.C,R4*%
X163925000Y-99290000D03*
X165575000Y-99290000D03*
%TD*%
%TO.C,R7*%
X124750000Y-76500000D03*
X126400000Y-76500000D03*
%TD*%
%TO.C,R2*%
X141675000Y-50075000D03*
X143325000Y-50075000D03*
%TD*%
D21*
%TO.C,C9*%
X124300000Y-104750000D03*
X125850000Y-104750000D03*
%TD*%
D28*
%TO.C,R1*%
X164575000Y-134250000D03*
X162925000Y-134250000D03*
%TD*%
D31*
%TO.C,U1*%
X129525000Y-76595000D03*
X129525000Y-77865000D03*
X129525000Y-79135000D03*
X129525000Y-80405000D03*
X134475000Y-80405000D03*
X134475000Y-79135000D03*
X134475000Y-77865000D03*
X134475000Y-76595000D03*
%TD*%
D32*
%TO.C,J2*%
X150000000Y-51850000D03*
D33*
X150000000Y-45550000D03*
D34*
X154800000Y-48950000D03*
%TD*%
D35*
%TO.C,J3*%
X131650000Y-109885000D03*
X131650000Y-126115000D03*
X125300000Y-109885000D03*
X125300000Y-126115000D03*
X138000000Y-109885000D03*
X138000000Y-126115000D03*
%TD*%
%TO.C,J1*%
X168375000Y-126115000D03*
X168375000Y-109885000D03*
X174725000Y-126115000D03*
X174725000Y-109885000D03*
X162025000Y-126115000D03*
X162025000Y-109885000D03*
%TD*%
%LPD*%
M02*
