%TF.GenerationSoftware,KiCad,Pcbnew,9.0.2*%
%TF.CreationDate,2025-07-24T18:53:36+12:00*%
%TF.ProjectId,Overdrive,4f766572-6472-4697-9665-2e6b69636164,rev?*%
%TF.SameCoordinates,Original*%
%TF.FileFunction,Copper,L1,Top*%
%TF.FilePolarity,Positive*%
%FSLAX46Y46*%
G04 Gerber Fmt 4.6, Leading zero omitted, Abs format (unit mm)*
G04 Created by KiCad (PCBNEW 9.0.2) date 2025-07-24 18:53:36*
%MOMM*%
%LPD*%
G01*
G04 APERTURE LIST*
G04 Aperture macros list*
%AMRoundRect*
0 Rectangle with rounded corners*
0 $1 Rounding radius*
0 $2 $3 $4 $5 $6 $7 $8 $9 X,Y pos of 4 corners*
0 Add a 4 corners polygon primitive as box body*
4,1,4,$2,$3,$4,$5,$6,$7,$8,$9,$2,$3,0*
0 Add four circle primitives for the rounded corners*
1,1,$1+$1,$2,$3*
1,1,$1+$1,$4,$5*
1,1,$1+$1,$6,$7*
1,1,$1+$1,$8,$9*
0 Add four rect primitives between the rounded corners*
20,1,$1+$1,$2,$3,$4,$5,0*
20,1,$1+$1,$4,$5,$6,$7,0*
20,1,$1+$1,$6,$7,$8,$9,0*
20,1,$1+$1,$8,$9,$2,$3,0*%
G04 Aperture macros list end*
%TA.AperFunction,ComponentPad*%
%ADD10O,4.000000X3.000000*%
%TD*%
%TA.AperFunction,ComponentPad*%
%ADD11RoundRect,0.250000X-0.550000X0.550000X-0.550000X-0.550000X0.550000X-0.550000X0.550000X0.550000X0*%
%TD*%
%TA.AperFunction,ComponentPad*%
%ADD12C,1.600000*%
%TD*%
%TA.AperFunction,SMDPad,CuDef*%
%ADD13RoundRect,0.200000X-0.200000X-0.275000X0.200000X-0.275000X0.200000X0.275000X-0.200000X0.275000X0*%
%TD*%
%TA.AperFunction,ComponentPad*%
%ADD14R,1.800000X1.800000*%
%TD*%
%TA.AperFunction,ComponentPad*%
%ADD15C,1.800000*%
%TD*%
%TA.AperFunction,SMDPad,CuDef*%
%ADD16RoundRect,0.150000X-0.587500X-0.150000X0.587500X-0.150000X0.587500X0.150000X-0.587500X0.150000X0*%
%TD*%
%TA.AperFunction,SMDPad,CuDef*%
%ADD17RoundRect,0.250000X-0.325000X-0.650000X0.325000X-0.650000X0.325000X0.650000X-0.325000X0.650000X0*%
%TD*%
%TA.AperFunction,SMDPad,CuDef*%
%ADD18RoundRect,0.225000X-0.225000X-0.250000X0.225000X-0.250000X0.225000X0.250000X-0.225000X0.250000X0*%
%TD*%
%TA.AperFunction,ComponentPad*%
%ADD19O,4.500000X3.000000*%
%TD*%
%TA.AperFunction,SMDPad,CuDef*%
%ADD20RoundRect,0.225000X0.225000X0.250000X-0.225000X0.250000X-0.225000X-0.250000X0.225000X-0.250000X0*%
%TD*%
%TA.AperFunction,ComponentPad*%
%ADD21C,0.800000*%
%TD*%
%TA.AperFunction,ComponentPad*%
%ADD22C,6.400000*%
%TD*%
%TA.AperFunction,SMDPad,CuDef*%
%ADD23RoundRect,0.225000X-0.225000X-0.375000X0.225000X-0.375000X0.225000X0.375000X-0.225000X0.375000X0*%
%TD*%
%TA.AperFunction,ComponentPad*%
%ADD24RoundRect,0.750000X0.750000X-1.250000X0.750000X1.250000X-0.750000X1.250000X-0.750000X-1.250000X0*%
%TD*%
%TA.AperFunction,SMDPad,CuDef*%
%ADD25RoundRect,0.200000X0.200000X0.275000X-0.200000X0.275000X-0.200000X-0.275000X0.200000X-0.275000X0*%
%TD*%
%TA.AperFunction,ComponentPad*%
%ADD26R,2.500000X2.500000*%
%TD*%
%TA.AperFunction,SMDPad,CuDef*%
%ADD27RoundRect,0.225000X0.225000X0.375000X-0.225000X0.375000X-0.225000X-0.375000X0.225000X-0.375000X0*%
%TD*%
%TA.AperFunction,SMDPad,CuDef*%
%ADD28RoundRect,0.150000X-0.825000X-0.150000X0.825000X-0.150000X0.825000X0.150000X-0.825000X0.150000X0*%
%TD*%
%TA.AperFunction,ComponentPad*%
%ADD29R,4.600000X2.000000*%
%TD*%
%TA.AperFunction,ComponentPad*%
%ADD30O,4.200000X2.000000*%
%TD*%
%TA.AperFunction,ComponentPad*%
%ADD31O,2.000000X4.200000*%
%TD*%
%TA.AperFunction,ComponentPad*%
%ADD32C,3.000000*%
%TD*%
%TA.AperFunction,ViaPad*%
%ADD33C,0.600000*%
%TD*%
%TA.AperFunction,Conductor*%
%ADD34C,0.500000*%
%TD*%
%TA.AperFunction,Conductor*%
%ADD35C,1.000000*%
%TD*%
G04 APERTURE END LIST*
D10*
%TO.P,SW1,1,A*%
%TO.N,GND*%
X166500000Y-81100000D03*
%TO.P,SW1,2,B*%
%TO.N,Net-(D3-A)*%
X166500000Y-85800000D03*
%TO.P,SW1,3,C*%
%TO.N,Net-(SW1-C)*%
X166500000Y-90500000D03*
%TD*%
D11*
%TO.P,CP2,1*%
%TO.N,Net-(CP2-Pad1)*%
X137750000Y-88250000D03*
D12*
%TO.P,CP2,2*%
%TO.N,Net-(CP2-Pad2)*%
X137750000Y-90750000D03*
%TD*%
D11*
%TO.P,CP1,1*%
%TO.N,Net-(CP1-Pad1)*%
X131500000Y-88250000D03*
D12*
%TO.P,CP1,2*%
%TO.N,GND*%
X131500000Y-90750000D03*
%TD*%
D13*
%TO.P,R10,1*%
%TO.N,Net-(D3-K)*%
X137675000Y-73000000D03*
%TO.P,R10,2*%
%TO.N,Net-(CP1-Pad1)*%
X139325000Y-73000000D03*
%TD*%
%TO.P,R9,1*%
%TO.N,Net-(SW1-C)*%
X124750000Y-73000000D03*
%TO.P,R9,2*%
%TO.N,Net-(Distortion1-Pad1)*%
X126400000Y-73000000D03*
%TD*%
D14*
%TO.P,D1,1,K*%
%TO.N,Net-(D1-K)*%
X173770000Y-135000000D03*
D15*
%TO.P,D1,2,A*%
%TO.N,Net-(D1-A)*%
X171230000Y-135000000D03*
%TD*%
D16*
%TO.P,Q1,1,B*%
%TO.N,Net-(Q1-B)*%
X170312500Y-100100000D03*
%TO.P,Q1,2,E*%
%TO.N,Net-(Q1-E)*%
X170312500Y-102000000D03*
%TO.P,Q1,3,C*%
%TO.N,+9V*%
X172187500Y-101050000D03*
%TD*%
D13*
%TO.P,R11,1*%
%TO.N,Net-(CP1-Pad1)*%
X137675000Y-74750000D03*
%TO.P,R11,2*%
%TO.N,+4.5V*%
X139325000Y-74750000D03*
%TD*%
D17*
%TO.P,C3,1*%
%TO.N,+4.5V*%
X141025000Y-47750000D03*
%TO.P,C3,2*%
%TO.N,GND*%
X143975000Y-47750000D03*
%TD*%
D18*
%TO.P,C6,1*%
%TO.N,Net-(SW1-C)*%
X124800000Y-78250000D03*
%TO.P,C6,2*%
%TO.N,Net-(D3-K)*%
X126350000Y-78250000D03*
%TD*%
D19*
%TO.P,S1,1*%
%TO.N,Wet In*%
X144800000Y-134500000D03*
%TO.P,S1,2*%
%TO.N,Guitar In*%
X144800000Y-139200000D03*
%TO.P,S1,3*%
%TO.N,Net-(S1-Pad3)*%
X144800000Y-143900000D03*
%TO.P,S1,4*%
%TO.N,Net-(D1-K)*%
X150000000Y-134500000D03*
%TO.P,S1,5*%
%TO.N,GND*%
X150000000Y-139200000D03*
%TO.P,S1,6*%
%TO.N,Wet In*%
X150000000Y-143900000D03*
%TO.P,S1,7*%
%TO.N,Wet Out*%
X155200000Y-134500000D03*
%TO.P,S1,8*%
%TO.N,Guitar Out*%
X155200000Y-139200000D03*
%TO.P,S1,9*%
%TO.N,Net-(S1-Pad3)*%
X155200000Y-143900000D03*
%TD*%
D13*
%TO.P,R16,1*%
%TO.N,Net-(Q2-E)*%
X124250000Y-101250000D03*
%TO.P,R16,2*%
%TO.N,GND*%
X125900000Y-101250000D03*
%TD*%
%TO.P,R12,1*%
%TO.N,GND*%
X137675000Y-76500000D03*
%TO.P,R12,2*%
%TO.N,Net-(CP2-Pad2)*%
X139325000Y-76500000D03*
%TD*%
D20*
%TO.P,C4,1*%
%TO.N,Net-(Q1-E)*%
X165525000Y-104550000D03*
%TO.P,C4,2*%
%TO.N,Net-(C4-Pad2)*%
X163975000Y-104550000D03*
%TD*%
D21*
%TO.P,H1,1*%
%TO.N,N/C*%
X163100000Y-145500000D03*
X163802944Y-143802944D03*
X163802944Y-147197056D03*
X165500000Y-143100000D03*
D22*
X165500000Y-145500000D03*
D21*
X165500000Y-147900000D03*
X167197056Y-143802944D03*
X167197056Y-147197056D03*
X167900000Y-145500000D03*
%TD*%
D18*
%TO.P,C8,1*%
%TO.N,Net-(C8-Pad1)*%
X124300000Y-97750000D03*
%TO.P,C8,2*%
%TO.N,Net-(Q2-B)*%
X125850000Y-97750000D03*
%TD*%
D23*
%TO.P,D2,1,K*%
%TO.N,+9V*%
X140850000Y-42250000D03*
%TO.P,D2,2,A*%
%TO.N,GND*%
X144150000Y-42250000D03*
%TD*%
D13*
%TO.P,R8,1*%
%TO.N,+4.5V*%
X124750000Y-74750000D03*
%TO.P,R8,2*%
%TO.N,Net-(C4-Pad2)*%
X126400000Y-74750000D03*
%TD*%
D17*
%TO.P,C1,1*%
%TO.N,+9V*%
X141025000Y-45000000D03*
%TO.P,C1,2*%
%TO.N,GND*%
X143975000Y-45000000D03*
%TD*%
D14*
%TO.P,Distortion1,1,1*%
%TO.N,Net-(Distortion1-Pad1)*%
X131000000Y-68050000D03*
D15*
%TO.P,Distortion1,2,2*%
%TO.N,Net-(D3-K)*%
X133500000Y-68050000D03*
%TO.P,Distortion1,3,3*%
%TO.N,unconnected-(Distortion1-Pad3)*%
X136000000Y-68050000D03*
D24*
%TO.P,Distortion1,MP*%
%TO.N,N/C*%
X128750000Y-60550000D03*
X138250000Y-60550000D03*
%TD*%
D13*
%TO.P,R15,1*%
%TO.N,+4.5V*%
X124250000Y-99500000D03*
%TO.P,R15,2*%
%TO.N,Net-(Q2-B)*%
X125900000Y-99500000D03*
%TD*%
D25*
%TO.P,R5,1*%
%TO.N,Net-(Q1-B)*%
X165575000Y-101050000D03*
%TO.P,R5,2*%
%TO.N,+4.5V*%
X163925000Y-101050000D03*
%TD*%
D20*
%TO.P,C2,1*%
%TO.N,Wet In*%
X165525000Y-97550000D03*
%TO.P,C2,2*%
%TO.N,Net-(C2-Pad2)*%
X163975000Y-97550000D03*
%TD*%
D18*
%TO.P,C7,1*%
%TO.N,Net-(C7-Pad1)*%
X137725000Y-81750000D03*
%TO.P,C7,2*%
%TO.N,Net-(C7-Pad2)*%
X139275000Y-81750000D03*
%TD*%
D23*
%TO.P,D4,1,K*%
%TO.N,Net-(D3-A)*%
X123925000Y-82750000D03*
%TO.P,D4,2,A*%
%TO.N,Net-(D3-K)*%
X127225000Y-82750000D03*
%TD*%
D26*
%TO.P,-9VBATT1,1,1*%
%TO.N,Net-(-9VBATT1-Pad1)*%
X159250000Y-49000000D03*
%TD*%
D13*
%TO.P,RB1,1*%
%TO.N,Net-(C9-Pad1)*%
X124250000Y-103000000D03*
%TO.P,RB1,2*%
%TO.N,Net-(Q2-E)*%
X125900000Y-103000000D03*
%TD*%
D21*
%TO.P,H2,1*%
%TO.N,N/C*%
X163100000Y-44500000D03*
X163802944Y-42802944D03*
X163802944Y-46197056D03*
X165500000Y-42100000D03*
D22*
X165500000Y-44500000D03*
D21*
X165500000Y-46900000D03*
X167197056Y-42802944D03*
X167197056Y-46197056D03*
X167900000Y-44500000D03*
%TD*%
%TO.P,H4,1*%
%TO.N,N/C*%
X132100000Y-145500000D03*
X132802944Y-143802944D03*
X132802944Y-147197056D03*
X134500000Y-143100000D03*
D22*
X134500000Y-145500000D03*
D21*
X134500000Y-147900000D03*
X136197056Y-143802944D03*
X136197056Y-147197056D03*
X136900000Y-145500000D03*
%TD*%
D13*
%TO.P,R14,1*%
%TO.N,Net-(C7-Pad2)*%
X137675000Y-80000000D03*
%TO.P,R14,2*%
%TO.N,Net-(Level1-Pad3)*%
X139325000Y-80000000D03*
%TD*%
D14*
%TO.P,Level1,1,1*%
%TO.N,GND*%
X164000000Y-68050000D03*
D15*
%TO.P,Level1,2,2*%
%TO.N,Net-(C8-Pad1)*%
X166500000Y-68050000D03*
%TO.P,Level1,3,3*%
%TO.N,Net-(Level1-Pad3)*%
X169000000Y-68050000D03*
D24*
%TO.P,Level1,MP*%
%TO.N,N/C*%
X161750000Y-60550000D03*
X171250000Y-60550000D03*
%TD*%
D16*
%TO.P,Q2,1,B*%
%TO.N,Net-(Q2-B)*%
X131000000Y-100100000D03*
%TO.P,Q2,2,E*%
%TO.N,Net-(Q2-E)*%
X131000000Y-102000000D03*
%TO.P,Q2,3,C*%
%TO.N,+9V*%
X132875000Y-101050000D03*
%TD*%
D27*
%TO.P,D3,1,K*%
%TO.N,Net-(D3-K)*%
X127225000Y-85500000D03*
%TO.P,D3,2,A*%
%TO.N,Net-(D3-A)*%
X123925000Y-85500000D03*
%TD*%
D13*
%TO.P,R6,1*%
%TO.N,GND*%
X163925000Y-102800000D03*
%TO.P,R6,2*%
%TO.N,Net-(Q1-E)*%
X165575000Y-102800000D03*
%TD*%
D20*
%TO.P,C5,1*%
%TO.N,Net-(C5-Pad1)*%
X126350000Y-80000000D03*
%TO.P,C5,2*%
%TO.N,Net-(SW1-C)*%
X124800000Y-80000000D03*
%TD*%
D26*
%TO.P,+9VBATT1,1,1*%
%TO.N,Net-(+9VBATT1-Pad1)*%
X159250000Y-43500000D03*
%TD*%
D13*
%TO.P,R13,1*%
%TO.N,Net-(R13-Pad1)*%
X137675000Y-78250000D03*
%TO.P,R13,2*%
%TO.N,Net-(C7-Pad1)*%
X139325000Y-78250000D03*
%TD*%
D14*
%TO.P,Tone1,1,1*%
%TO.N,Net-(CP1-Pad1)*%
X147500000Y-93550000D03*
D15*
%TO.P,Tone1,2,2*%
%TO.N,Net-(CP2-Pad1)*%
X150000000Y-93550000D03*
%TO.P,Tone1,3,3*%
%TO.N,Net-(R13-Pad1)*%
X152500000Y-93550000D03*
D24*
%TO.P,Tone1,MP*%
%TO.N,N/C*%
X145250000Y-86050000D03*
X154750000Y-86050000D03*
%TD*%
D13*
%TO.P,R3,1*%
%TO.N,+4.5V*%
X141675000Y-51825000D03*
%TO.P,R3,2*%
%TO.N,GND*%
X143325000Y-51825000D03*
%TD*%
%TO.P,RC1,1*%
%TO.N,Guitar Out*%
X162925000Y-136250000D03*
%TO.P,RC1,2*%
%TO.N,GND*%
X164575000Y-136250000D03*
%TD*%
D21*
%TO.P,H3,1*%
%TO.N,N/C*%
X132100000Y-44500000D03*
X132802944Y-42802944D03*
X132802944Y-46197056D03*
X134500000Y-42100000D03*
D22*
X134500000Y-44500000D03*
D21*
X134500000Y-46900000D03*
X136197056Y-42802944D03*
X136197056Y-46197056D03*
X136900000Y-44500000D03*
%TD*%
D13*
%TO.P,R4,1*%
%TO.N,Net-(C2-Pad2)*%
X163925000Y-99290000D03*
%TO.P,R4,2*%
%TO.N,Net-(Q1-B)*%
X165575000Y-99290000D03*
%TD*%
%TO.P,R7,1*%
%TO.N,GND*%
X124750000Y-76500000D03*
%TO.P,R7,2*%
%TO.N,Net-(C5-Pad1)*%
X126400000Y-76500000D03*
%TD*%
%TO.P,R2,1*%
%TO.N,+9V*%
X141675000Y-50075000D03*
%TO.P,R2,2*%
%TO.N,+4.5V*%
X143325000Y-50075000D03*
%TD*%
D18*
%TO.P,C9,1*%
%TO.N,Net-(C9-Pad1)*%
X124300000Y-104750000D03*
%TO.P,C9,2*%
%TO.N,Wet Out*%
X125850000Y-104750000D03*
%TD*%
D25*
%TO.P,R1,1*%
%TO.N,Net-(D1-A)*%
X164575000Y-134250000D03*
%TO.P,R1,2*%
%TO.N,+9V*%
X162925000Y-134250000D03*
%TD*%
D28*
%TO.P,U1,1*%
%TO.N,Net-(D3-K)*%
X129525000Y-76595000D03*
%TO.P,U1,2*%
%TO.N,Net-(SW1-C)*%
X129525000Y-77865000D03*
%TO.P,U1,3*%
%TO.N,Net-(C4-Pad2)*%
X129525000Y-79135000D03*
%TO.P,U1,4,VCC-*%
%TO.N,GND*%
X129525000Y-80405000D03*
%TO.P,U1,5*%
%TO.N,Net-(CP1-Pad1)*%
X134475000Y-80405000D03*
%TO.P,U1,6*%
%TO.N,Net-(R13-Pad1)*%
X134475000Y-79135000D03*
%TO.P,U1,7*%
%TO.N,Net-(C7-Pad1)*%
X134475000Y-77865000D03*
%TO.P,U1,8,VCC+*%
%TO.N,+9V*%
X134475000Y-76595000D03*
%TD*%
D29*
%TO.P,J2,1*%
%TO.N,GND*%
X150000000Y-51850000D03*
D30*
%TO.P,J2,2*%
%TO.N,+9V*%
X150000000Y-45550000D03*
D31*
%TO.P,J2,3*%
%TO.N,Net-(+9VBATT1-Pad1)*%
X154800000Y-48950000D03*
%TD*%
D32*
%TO.P,J3,R*%
%TO.N,N/C*%
X131650000Y-109885000D03*
%TO.P,J3,RN*%
X131650000Y-126115000D03*
%TO.P,J3,S*%
%TO.N,GND*%
X125300000Y-109885000D03*
%TO.P,J3,SN*%
%TO.N,unconnected-(J3-PadSN)*%
X125300000Y-126115000D03*
%TO.P,J3,T*%
%TO.N,Guitar Out*%
X138000000Y-109885000D03*
%TO.P,J3,TN*%
%TO.N,unconnected-(J3-PadTN)*%
X138000000Y-126115000D03*
%TD*%
%TO.P,J1,R*%
%TO.N,N/C*%
X168375000Y-126115000D03*
%TO.P,J1,RN*%
X168375000Y-109885000D03*
%TO.P,J1,S*%
%TO.N,GND*%
X174725000Y-126115000D03*
%TO.P,J1,SN*%
%TO.N,Net-(-9VBATT1-Pad1)*%
X174725000Y-109885000D03*
%TO.P,J1,T*%
%TO.N,Guitar In*%
X162025000Y-126115000D03*
%TO.P,J1,TN*%
%TO.N,unconnected-(J1-PadTN)*%
X162025000Y-109885000D03*
%TD*%
D33*
%TO.N,Net-(SW1-C)*%
X145000000Y-67000000D03*
%TO.N,Net-(D3-A)*%
X145500000Y-66000000D03*
X141000000Y-65500000D03*
%TO.N,Net-(SW1-C)*%
X141000000Y-66500000D03*
%TO.N,Net-(Level1-Pad3)*%
X146750000Y-78750000D03*
%TO.N,Wet In*%
X158000000Y-103000000D03*
X159000000Y-100000000D03*
%TO.N,Net-(C8-Pad1)*%
X140000000Y-99000000D03*
%TO.N,+4.5V*%
X140500000Y-98000000D03*
%TO.N,Net-(C4-Pad2)*%
X141000000Y-97000000D03*
%TO.N,Net-(SW1-C)*%
X124750000Y-73000000D03*
X129525000Y-77865000D03*
%TO.N,Net-(C4-Pad2)*%
X134500000Y-94000000D03*
%TO.N,Net-(C5-Pad1)*%
X126400000Y-76500000D03*
X126350000Y-80000000D03*
%TO.N,Net-(CP1-Pad1)*%
X140469669Y-90969669D03*
%TO.N,Net-(R13-Pad1)*%
X139750000Y-83750000D03*
X145500000Y-83000000D03*
%TO.N,Net-(C7-Pad1)*%
X139250000Y-78250000D03*
X134475000Y-77865000D03*
%TO.N,Net-(C8-Pad1)*%
X134500000Y-96000000D03*
%TO.N,GND*%
X143975000Y-47750000D03*
X124750000Y-76500000D03*
X125900000Y-101250000D03*
X144150000Y-42250000D03*
X129525000Y-80405000D03*
X137675000Y-76500000D03*
X163925000Y-102800000D03*
X143325000Y-51825000D03*
X164575000Y-136250000D03*
X143975000Y-45000000D03*
%TO.N,Net-(Level1-Pad3)*%
X139325000Y-80000000D03*
%TO.N,+9V*%
X143000000Y-73500000D03*
X134475000Y-76595000D03*
%TO.N,+4.5V*%
X121750000Y-81000000D03*
X141675000Y-51825000D03*
X134500000Y-95000000D03*
X124750000Y-74750000D03*
X141675000Y-55750000D03*
%TO.N,Wet In*%
X138500000Y-133750000D03*
X142000000Y-128750000D03*
%TO.N,Guitar In*%
X142000000Y-131250000D03*
%TO.N,Net-(D3-K)*%
X129500000Y-76595000D03*
%TD*%
D34*
%TO.N,Net-(C4-Pad2)*%
X130249000Y-91268182D02*
X132980818Y-94000000D01*
X130249000Y-85903708D02*
X130249000Y-91268182D01*
X131152708Y-85000000D02*
X130249000Y-85903708D01*
X132980818Y-94000000D02*
X134500000Y-94000000D01*
X131152708Y-85000000D02*
X131152708Y-79787709D01*
X131152708Y-79787709D02*
X130499999Y-79135000D01*
%TO.N,Net-(CP1-Pad1)*%
X134475000Y-85275000D02*
X134475000Y-80405000D01*
X131500000Y-88250000D02*
X134475000Y-85275000D01*
X134500000Y-90750000D02*
X134500000Y-80430000D01*
X138939338Y-92500000D02*
X136250000Y-92500000D01*
X136250000Y-92500000D02*
X134500000Y-90750000D01*
X140469669Y-90969669D02*
X138939338Y-92500000D01*
%TO.N,+4.5V*%
X142000000Y-90500000D02*
X137500000Y-95000000D01*
X137500000Y-95000000D02*
X132250000Y-95000000D01*
X142000000Y-77425000D02*
X142000000Y-90500000D01*
X139325000Y-74750000D02*
X142000000Y-77425000D01*
%TO.N,Net-(Level1-Pad3)*%
X167649000Y-66699000D02*
X169000000Y-68050000D01*
X146750000Y-78750000D02*
X158801000Y-66699000D01*
X158801000Y-66699000D02*
X167649000Y-66699000D01*
%TO.N,Net-(D3-A)*%
X164299000Y-83599000D02*
X166500000Y-85800000D01*
X149599000Y-83599000D02*
X164299000Y-83599000D01*
X145751000Y-79751000D02*
X149599000Y-83599000D01*
X145751000Y-66251000D02*
X145751000Y-79751000D01*
X145500000Y-66000000D02*
X145751000Y-66251000D01*
%TO.N,Net-(SW1-C)*%
X155501528Y-90500000D02*
X166500000Y-90500000D01*
X145000000Y-79998472D02*
X155501528Y-90500000D01*
X145000000Y-67000000D02*
X145000000Y-79998472D01*
%TO.N,Net-(D3-A)*%
X123198000Y-72158636D02*
X129856636Y-65500000D01*
X129856636Y-65500000D02*
X141000000Y-65500000D01*
X123198000Y-82023000D02*
X123198000Y-72158636D01*
X123925000Y-82750000D02*
X123198000Y-82023000D01*
%TO.N,Net-(SW1-C)*%
X129848000Y-66500000D02*
X141000000Y-66500000D01*
X124750000Y-71598000D02*
X129848000Y-66500000D01*
X124750000Y-73000000D02*
X124750000Y-71598000D01*
%TO.N,Wet In*%
X142000000Y-119000000D02*
X142000000Y-128750000D01*
X158000000Y-103000000D02*
X142000000Y-119000000D01*
X162376000Y-96624000D02*
X159000000Y-100000000D01*
X164599000Y-96624000D02*
X162376000Y-96624000D01*
%TO.N,Net-(C4-Pad2)*%
X138548000Y-99601439D02*
X138548000Y-98398561D01*
X139946561Y-97000000D02*
X141000000Y-97000000D01*
X140697561Y-101751000D02*
X138548000Y-99601439D01*
X161176000Y-101751000D02*
X140697561Y-101751000D01*
X163975000Y-104550000D02*
X161176000Y-101751000D01*
X138548000Y-98398561D02*
X139946561Y-97000000D01*
%TO.N,+4.5V*%
X139249000Y-98688925D02*
X139937925Y-98000000D01*
X139249000Y-99311075D02*
X139249000Y-98688925D01*
X140987925Y-101050000D02*
X139249000Y-99311075D01*
X163925000Y-101050000D02*
X140987925Y-101050000D01*
X139937925Y-98000000D02*
X140500000Y-98000000D01*
%TO.N,Net-(SW1-C)*%
X124800000Y-78250000D02*
X124800000Y-80000000D01*
X123899000Y-73851000D02*
X123899000Y-77349000D01*
X124750000Y-73000000D02*
X123899000Y-73851000D01*
X123899000Y-77349000D02*
X124800000Y-78250000D01*
%TO.N,Net-(CP2-Pad2)*%
X141250000Y-78425000D02*
X139325000Y-76500000D01*
X141250000Y-87250000D02*
X141250000Y-78425000D01*
X137750000Y-90750000D02*
X141250000Y-87250000D01*
%TO.N,Net-(C4-Pad2)*%
X130951000Y-78683999D02*
X130951000Y-76191900D01*
X129509100Y-74750000D02*
X126400000Y-74750000D01*
X129525000Y-79135000D02*
X130499999Y-79135000D01*
X130499999Y-79135000D02*
X130951000Y-78683999D01*
X130951000Y-76191900D02*
X129509100Y-74750000D01*
%TO.N,Net-(Q2-E)*%
X125900000Y-103000000D02*
X130000000Y-103000000D01*
X130000000Y-103000000D02*
X131000000Y-102000000D01*
X125900000Y-102900000D02*
X124250000Y-101250000D01*
%TO.N,Net-(C9-Pad1)*%
X124300000Y-104750000D02*
X124300000Y-103050000D01*
%TO.N,Net-(CP1-Pad1)*%
X137675000Y-74750000D02*
X134490900Y-74750000D01*
X134490900Y-74750000D02*
X133049000Y-76191900D01*
X133049000Y-76191900D02*
X133049000Y-79799000D01*
X133655000Y-80405000D02*
X134475000Y-80405000D01*
X133049000Y-79799000D02*
X133655000Y-80405000D01*
X137675000Y-74650000D02*
X139325000Y-73000000D01*
%TO.N,Net-(Q2-B)*%
X130400000Y-99500000D02*
X131000000Y-100100000D01*
X125850000Y-97750000D02*
X125850000Y-99450000D01*
X125900000Y-99500000D02*
X130400000Y-99500000D01*
%TO.N,Net-(R13-Pad1)*%
X145500000Y-83000000D02*
X145898472Y-83000000D01*
X136824000Y-82286242D02*
X138287758Y-83750000D01*
X152500000Y-89601528D02*
X152500000Y-93550000D01*
X138287758Y-83750000D02*
X139750000Y-83750000D01*
X136790000Y-79135000D02*
X137675000Y-78250000D01*
X134475000Y-79135000D02*
X136790000Y-79135000D01*
X136824000Y-82286242D02*
X136824000Y-79101000D01*
X136824000Y-79101000D02*
X137675000Y-78250000D01*
X145898472Y-83000000D02*
X152500000Y-89601528D01*
%TO.N,Net-(C7-Pad1)*%
X140176000Y-82286242D02*
X140176000Y-79101000D01*
X140176000Y-79101000D02*
X139325000Y-78250000D01*
X139786242Y-82676000D02*
X140176000Y-82286242D01*
X138651000Y-82676000D02*
X139786242Y-82676000D01*
X137725000Y-81750000D02*
X138651000Y-82676000D01*
%TO.N,Net-(C7-Pad2)*%
X139275000Y-81600000D02*
X137675000Y-80000000D01*
%TO.N,Net-(C8-Pad1)*%
X126050000Y-96000000D02*
X124300000Y-97750000D01*
X134500000Y-96000000D02*
X126050000Y-96000000D01*
%TO.N,Net-(Distortion1-Pad1)*%
X126400000Y-73000000D02*
X131000000Y-68400000D01*
%TO.N,Net-(Q1-E)*%
X165575000Y-102800000D02*
X165950000Y-102800000D01*
X166750000Y-102000000D02*
X170312500Y-102000000D01*
X165575000Y-102800000D02*
X165575000Y-104500000D01*
X165950000Y-102800000D02*
X166750000Y-102000000D01*
%TO.N,Net-(Q1-B)*%
X165790000Y-99290000D02*
X166600000Y-100100000D01*
X165575000Y-99290000D02*
X165790000Y-99290000D01*
X165575000Y-99290000D02*
X165575000Y-101050000D01*
X166600000Y-100100000D02*
X170312500Y-100100000D01*
%TO.N,Net-(D1-A)*%
X170480000Y-134250000D02*
X171230000Y-135000000D01*
X164575000Y-134250000D02*
X170480000Y-134250000D01*
D35*
%TO.N,+9V*%
X172187500Y-66935474D02*
X158803026Y-53551000D01*
X162925000Y-128327685D02*
X172187500Y-119065185D01*
D34*
X140824000Y-50926000D02*
X141675000Y-50075000D01*
D35*
X140574000Y-52478748D02*
X140574000Y-50776000D01*
X162925000Y-134250000D02*
X162925000Y-128327685D01*
X132875000Y-101050000D02*
X143049000Y-90876000D01*
D34*
X139999000Y-46026000D02*
X141025000Y-45000000D01*
X140850000Y-42250000D02*
X140850000Y-44825000D01*
D35*
X140797626Y-52702374D02*
X140574000Y-52478748D01*
X158803026Y-53551000D02*
X141646252Y-53551000D01*
X140574000Y-51171252D02*
X141670252Y-50075000D01*
X141646252Y-53551000D02*
X140574000Y-52478748D01*
D34*
X141275000Y-50075000D02*
X139999000Y-48799000D01*
D35*
X141275000Y-50075000D02*
X141675000Y-50075000D01*
X172187500Y-101050000D02*
X172187500Y-66935474D01*
D34*
X139999000Y-48799000D02*
X139999000Y-46026000D01*
D35*
X141670252Y-50075000D02*
X141675000Y-50075000D01*
X140574000Y-52478748D02*
X140574000Y-51171252D01*
X143049000Y-90876000D02*
X143049000Y-54953748D01*
X172187500Y-119065185D02*
X172187500Y-101050000D01*
D34*
X150000000Y-45550000D02*
X145649000Y-41199000D01*
X140824000Y-52375196D02*
X140824000Y-50926000D01*
X141901000Y-41199000D02*
X140850000Y-42250000D01*
D35*
X140574000Y-50776000D02*
X141275000Y-50075000D01*
X143049000Y-54953748D02*
X140797626Y-52702374D01*
D34*
X145649000Y-41199000D02*
X141901000Y-41199000D01*
%TO.N,+4.5V*%
X131750000Y-95000000D02*
X132250000Y-95000000D01*
X125612758Y-95000000D02*
X123399000Y-97213758D01*
X141750000Y-55825000D02*
X141750000Y-72325000D01*
X132250000Y-95000000D02*
X125612758Y-95000000D01*
X141750000Y-72325000D02*
X139325000Y-74750000D01*
X141025000Y-47775000D02*
X143325000Y-50075000D01*
X141675000Y-55750000D02*
X141750000Y-55825000D01*
X121750000Y-85000000D02*
X131750000Y-95000000D01*
X123399000Y-97213758D02*
X123399000Y-98649000D01*
X121750000Y-81000000D02*
X121750000Y-85000000D01*
X143325000Y-50175000D02*
X141675000Y-51825000D01*
X123399000Y-98649000D02*
X124250000Y-99500000D01*
%TO.N,Wet In*%
X144039869Y-141949000D02*
X142099000Y-140008131D01*
X138500000Y-133750000D02*
X139250000Y-134500000D01*
X150000000Y-143900000D02*
X148049000Y-141949000D01*
X139250000Y-134500000D02*
X144800000Y-134500000D01*
X148049000Y-141949000D02*
X144039869Y-141949000D01*
X165525000Y-97550000D02*
X164599000Y-96624000D01*
X142099000Y-137490364D02*
X144800000Y-134789364D01*
X142099000Y-140008131D02*
X142099000Y-137490364D01*
%TO.N,Guitar Out*%
X143241869Y-145851000D02*
X136049000Y-138658131D01*
X157901000Y-141901000D02*
X157901000Y-144708131D01*
X136049000Y-111836000D02*
X138000000Y-109885000D01*
X136049000Y-138658131D02*
X136049000Y-111836000D01*
X156758131Y-145851000D02*
X143241869Y-145851000D01*
X155200000Y-139200000D02*
X157901000Y-141901000D01*
X159975000Y-139200000D02*
X155200000Y-139200000D01*
X157901000Y-144708131D02*
X156758131Y-145851000D01*
X162925000Y-136250000D02*
X159975000Y-139200000D01*
%TO.N,Net-(+9VBATT1-Pad1)*%
X159250000Y-44500000D02*
X154800000Y-48950000D01*
D35*
%TO.N,Net-(-9VBATT1-Pad1)*%
X178752000Y-105858000D02*
X174725000Y-109885000D01*
X166181622Y-49000000D02*
X178752000Y-61570378D01*
X159250000Y-49000000D02*
X166181622Y-49000000D01*
X178752000Y-61570378D02*
X178752000Y-105858000D01*
D34*
%TO.N,Wet Out*%
X141249000Y-131561075D02*
X142236925Y-132549000D01*
X125850000Y-104750000D02*
X135624131Y-104750000D01*
X153249000Y-132549000D02*
X155200000Y-134500000D01*
X135624131Y-104750000D02*
X141249000Y-110374869D01*
X141249000Y-110374869D02*
X141249000Y-131561075D01*
X142236925Y-132549000D02*
X153249000Y-132549000D01*
%TO.N,Net-(D1-K)*%
X152749000Y-137249000D02*
X156758131Y-137249000D01*
X169643397Y-135324000D02*
X170670397Y-136351000D01*
X156758131Y-137249000D02*
X158683131Y-135324000D01*
X170670397Y-136351000D02*
X172419000Y-136351000D01*
X158683131Y-135324000D02*
X169643397Y-135324000D01*
X150000000Y-134500000D02*
X152749000Y-137249000D01*
X172419000Y-136351000D02*
X173770000Y-135000000D01*
%TO.N,Guitar In*%
X156890000Y-131250000D02*
X162025000Y-126115000D01*
X142000000Y-131250000D02*
X156890000Y-131250000D01*
%TO.N,Net-(C2-Pad2)*%
X163975000Y-97550000D02*
X163975000Y-99240000D01*
%TO.N,Net-(D3-A)*%
X123925000Y-82750000D02*
X123925000Y-85500000D01*
%TO.N,Net-(D3-K)*%
X133500000Y-68050000D02*
X137675000Y-72225000D01*
X137675000Y-72225000D02*
X137675000Y-73000000D01*
X128005000Y-76595000D02*
X129500000Y-76595000D01*
X127225000Y-85500000D02*
X127225000Y-82750000D01*
X126350000Y-78250000D02*
X127251000Y-79151000D01*
X127251000Y-79151000D02*
X127251000Y-82724000D01*
X126350000Y-78250000D02*
X128005000Y-76595000D01*
%TO.N,Net-(C8-Pad1)*%
X166500000Y-68050000D02*
X170500000Y-72050000D01*
X170500000Y-72050000D02*
X170500000Y-91000000D01*
X160782728Y-93500000D02*
X155282728Y-99000000D01*
X155282728Y-99000000D02*
X140000000Y-99000000D01*
X168000000Y-93500000D02*
X160782728Y-93500000D01*
X170500000Y-91000000D02*
X168000000Y-93500000D01*
%TD*%
M02*
