M48
; DRILL file {KiCad 9.0.2} date 2025-07-24T18:53:36+1200
; FORMAT={-:-/ absolute / inch / decimal}
; #@! TF.CreationDate,2025-07-24T18:53:36+12:00
; #@! TF.GenerationSoftware,Kicad,Pcbnew,9.0.2
; #@! TF.FileFunction,Plated,1,2,PTH
FMAT,2
INCH
; #@! TA.AperFunction,Plated,PTH,ViaDrill
T1C0.0118
; #@! TA.AperFunction,Plated,PTH,ComponentDrill
T2C0.0197
; #@! TA.AperFunction,Plated,PTH,ComponentDrill
T3C0.0315
; #@! TA.AperFunction,Plated,PTH,ComponentDrill
T4C0.0354
; #@! TA.AperFunction,Plated,PTH,ComponentDrill
T5C0.0394
; #@! TA.AperFunction,Plated,PTH,ComponentDrill
T6C0.0472
; #@! TA.AperFunction,Plated,PTH,ComponentDrill
T7C0.0551
; #@! TA.AperFunction,Plated,PTH,ComponentDrill
T8C0.0591
; #@! TA.AperFunction,Plated,PTH,ComponentDrill
T9C0.0709
; #@! TA.AperFunction,Plated,PTH,ComponentDrill
T10C0.1260
%
G90
G05
T1
X4.7933Y-3.189
X4.9114Y-2.874
X4.9114Y-2.9429
X4.9114Y-3.0118
X4.9567Y-3.9862
X4.9744Y-3.1496
X4.9764Y-3.0118
X5.0984Y-3.0156
X5.0994Y-3.0656
X5.0994Y-3.1656
X5.2943Y-3.0156
X5.2943Y-3.0656
X5.2953Y-3.7008
X5.2953Y-3.7402
X5.2953Y-3.7795
X5.4203Y-3.0118
X5.4528Y-5.2657
X5.4823Y-3.0807
X5.4852Y-3.1496
X5.502Y-3.2972
X5.5118Y-3.8976
X5.5303Y-3.5815
X5.5315Y-3.8583
X5.5512Y-2.5787
X5.5512Y-2.6181
X5.5512Y-3.8189
X5.5778Y-2.0404
X5.5778Y-2.1949
X5.5906Y-5.0689
X5.5906Y-5.1673
X5.6299Y-2.8937
X5.6427Y-2.0404
X5.6683Y-1.7717
X5.6683Y-1.8799
X5.6752Y-1.6634
X5.7087Y-2.6378
X5.7283Y-2.5984
X5.7283Y-3.2677
X5.7776Y-3.1004
X6.2205Y-4.0551
X6.2598Y-3.937
X6.4537Y-4.0472
X6.4793Y-5.3642
T2
X5.2008Y-1.752
X5.2008Y-5.7283
X5.2285Y-1.6852
X5.2285Y-1.8188
X5.2285Y-5.6615
X5.2285Y-5.7952
X5.2953Y-1.6575
X5.2953Y-1.8465
X5.2953Y-5.6339
X5.2953Y-5.8228
X5.3621Y-1.6852
X5.3621Y-1.8188
X5.3621Y-5.6615
X5.3621Y-5.7952
X5.3898Y-1.752
X5.3898Y-5.7283
X6.4213Y-1.752
X6.4213Y-5.7283
X6.4489Y-1.6852
X6.4489Y-1.8188
X6.4489Y-5.6615
X6.4489Y-5.7952
X6.5157Y-1.6575
X6.5157Y-1.8465
X6.5157Y-5.6339
X6.5157Y-5.8228
X6.5826Y-1.6852
X6.5826Y-1.8188
X6.5826Y-5.6615
X6.5826Y-5.7952
X6.6102Y-1.752
X6.6102Y-5.7283
T3
X5.1772Y-3.4744
X5.1772Y-3.5728
X5.4232Y-3.4744
X5.4232Y-3.5728
T4
X6.7413Y-5.315
X6.8413Y-5.315
T5
X5.1575Y-2.6791
X5.2559Y-2.6791
X5.3543Y-2.6791
X5.8071Y-3.6831
X5.9055Y-3.6831
X6.0039Y-3.6831
X6.4567Y-2.6791
X6.5551Y-2.6791
X6.6535Y-2.6791
T6
X6.2697Y-1.7126
X6.2697Y-1.9291
T7
X4.9331Y-4.3262
X4.9331Y-4.9652
X5.1831Y-4.3262
X5.1831Y-4.9652
X5.4331Y-4.3262
X5.4331Y-4.9652
X6.3789Y-4.3262
X6.3789Y-4.9652
X6.6289Y-4.3262
X6.6289Y-4.9652
X6.8789Y-4.3262
X6.8789Y-4.9652
T10
X5.2953Y-1.752
X5.2953Y-5.7283
X6.5157Y-1.752
X6.5157Y-5.7283
T5
G00X5.6614Y-5.2953
M15
G01X5.7402Y-5.2953
M16
G05
G00X5.6614Y-5.4803
M15
G01X5.7402Y-5.4803
M16
G05
G00X5.6614Y-5.6654
M15
G01X5.7402Y-5.6654
M16
G05
G00X5.8622Y-1.7933
M15
G01X5.9488Y-1.7933
M16
G05
G00X5.8543Y-2.0413
M15
G01X5.9567Y-2.0413
M16
G05
G00X5.8661Y-5.2953
M15
G01X5.9449Y-5.2953
M16
G05
G00X5.8661Y-5.4803
M15
G01X5.9449Y-5.4803
M16
G05
G00X5.8661Y-5.6654
M15
G01X5.9449Y-5.6654
M16
G05
G00X6.0945Y-1.8839
M15
G01X6.0945Y-1.9705
M16
G05
G00X6.0709Y-5.2953
M15
G01X6.1496Y-5.2953
M16
G05
G00X6.0709Y-5.4803
M15
G01X6.1496Y-5.4803
M16
G05
G00X6.0709Y-5.6654
M15
G01X6.1496Y-5.6654
M16
G05
T8
G00X6.5256Y-3.1929
M15
G01X6.5846Y-3.1929
M16
G05
G00X6.5256Y-3.378
M15
G01X6.5846Y-3.378
M16
G05
G00X6.5256Y-3.563
M15
G01X6.5846Y-3.563
M16
G05
T9
G00X5.065Y-2.3839
M15
G01X5.0728Y-2.3839
M16
G05
G00X5.439Y-2.3839
M15
G01X5.4469Y-2.3839
M16
G05
G00X5.7146Y-3.3878
M15
G01X5.7224Y-3.3878
M16
G05
G00X6.0886Y-3.3878
M15
G01X6.0965Y-3.3878
M16
G05
G00X6.3642Y-2.3839
M15
G01X6.372Y-2.3839
M16
G05
G00X6.7382Y-2.3839
M15
G01X6.7461Y-2.3839
M16
G05
M30
