%TF.GenerationSoftware,KiCad,Pcbnew,9.0.2*%
%TF.CreationDate,2025-07-24T18:53:36+12:00*%
%TF.ProjectId,Overdrive,4f766572-6472-4697-9665-2e6b69636164,rev?*%
%TF.SameCoordinates,Original*%
%TF.FileFunction,Soldermask,Bot*%
%TF.FilePolarity,Negative*%
%FSLAX46Y46*%
G04 Gerber Fmt 4.6, Leading zero omitted, Abs format (unit mm)*
G04 Created by KiCad (PCBNEW 9.0.2) date 2025-07-24 18:53:36*
%MOMM*%
%LPD*%
G01*
G04 APERTURE LIST*
G04 Aperture macros list*
%AMRoundRect*
0 Rectangle with rounded corners*
0 $1 Rounding radius*
0 $2 $3 $4 $5 $6 $7 $8 $9 X,Y pos of 4 corners*
0 Add a 4 corners polygon primitive as box body*
4,1,4,$2,$3,$4,$5,$6,$7,$8,$9,$2,$3,0*
0 Add four circle primitives for the rounded corners*
1,1,$1+$1,$2,$3*
1,1,$1+$1,$4,$5*
1,1,$1+$1,$6,$7*
1,1,$1+$1,$8,$9*
0 Add four rect primitives between the rounded corners*
20,1,$1+$1,$2,$3,$4,$5,0*
20,1,$1+$1,$4,$5,$6,$7,0*
20,1,$1+$1,$6,$7,$8,$9,0*
20,1,$1+$1,$8,$9,$2,$3,0*%
G04 Aperture macros list end*
%ADD10O,4.000000X3.000000*%
%ADD11RoundRect,0.250000X-0.550000X0.550000X-0.550000X-0.550000X0.550000X-0.550000X0.550000X0.550000X0*%
%ADD12C,1.600000*%
%ADD13R,1.800000X1.800000*%
%ADD14C,1.800000*%
%ADD15O,4.500000X3.000000*%
%ADD16C,0.800000*%
%ADD17C,6.400000*%
%ADD18RoundRect,0.750000X0.750000X-1.250000X0.750000X1.250000X-0.750000X1.250000X-0.750000X-1.250000X0*%
%ADD19R,2.500000X2.500000*%
%ADD20R,4.600000X2.000000*%
%ADD21O,4.200000X2.000000*%
%ADD22O,2.000000X4.200000*%
%ADD23C,3.000000*%
G04 APERTURE END LIST*
D10*
%TO.C,SW1*%
X166500000Y-81100000D03*
X166500000Y-85800000D03*
X166500000Y-90500000D03*
%TD*%
D11*
%TO.C,CP2*%
X137750000Y-88250000D03*
D12*
X137750000Y-90750000D03*
%TD*%
D11*
%TO.C,CP1*%
X131500000Y-88250000D03*
D12*
X131500000Y-90750000D03*
%TD*%
D13*
%TO.C,D1*%
X173770000Y-135000000D03*
D14*
X171230000Y-135000000D03*
%TD*%
D15*
%TO.C,S1*%
X144800000Y-134500000D03*
X144800000Y-139200000D03*
X144800000Y-143900000D03*
X150000000Y-134500000D03*
X150000000Y-139200000D03*
X150000000Y-143900000D03*
X155200000Y-134500000D03*
X155200000Y-139200000D03*
X155200000Y-143900000D03*
%TD*%
D16*
%TO.C,H1*%
X163100000Y-145500000D03*
X163802944Y-143802944D03*
X163802944Y-147197056D03*
X165500000Y-143100000D03*
D17*
X165500000Y-145500000D03*
D16*
X165500000Y-147900000D03*
X167197056Y-143802944D03*
X167197056Y-147197056D03*
X167900000Y-145500000D03*
%TD*%
D13*
%TO.C,Distortion1*%
X131000000Y-68050000D03*
D14*
X133500000Y-68050000D03*
X136000000Y-68050000D03*
D18*
X128750000Y-60550000D03*
X138250000Y-60550000D03*
%TD*%
D19*
%TO.C,-9VBATT1*%
X159250000Y-49000000D03*
%TD*%
D16*
%TO.C,H2*%
X163100000Y-44500000D03*
X163802944Y-42802944D03*
X163802944Y-46197056D03*
X165500000Y-42100000D03*
D17*
X165500000Y-44500000D03*
D16*
X165500000Y-46900000D03*
X167197056Y-42802944D03*
X167197056Y-46197056D03*
X167900000Y-44500000D03*
%TD*%
%TO.C,H4*%
X132100000Y-145500000D03*
X132802944Y-143802944D03*
X132802944Y-147197056D03*
X134500000Y-143100000D03*
D17*
X134500000Y-145500000D03*
D16*
X134500000Y-147900000D03*
X136197056Y-143802944D03*
X136197056Y-147197056D03*
X136900000Y-145500000D03*
%TD*%
D13*
%TO.C,Level1*%
X164000000Y-68050000D03*
D14*
X166500000Y-68050000D03*
X169000000Y-68050000D03*
D18*
X161750000Y-60550000D03*
X171250000Y-60550000D03*
%TD*%
D19*
%TO.C,+9VBATT1*%
X159250000Y-43500000D03*
%TD*%
D13*
%TO.C,Tone1*%
X147500000Y-93550000D03*
D14*
X150000000Y-93550000D03*
X152500000Y-93550000D03*
D18*
X145250000Y-86050000D03*
X154750000Y-86050000D03*
%TD*%
D16*
%TO.C,H3*%
X132100000Y-44500000D03*
X132802944Y-42802944D03*
X132802944Y-46197056D03*
X134500000Y-42100000D03*
D17*
X134500000Y-44500000D03*
D16*
X134500000Y-46900000D03*
X136197056Y-42802944D03*
X136197056Y-46197056D03*
X136900000Y-44500000D03*
%TD*%
D20*
%TO.C,J2*%
X150000000Y-51850000D03*
D21*
X150000000Y-45550000D03*
D22*
X154800000Y-48950000D03*
%TD*%
D23*
%TO.C,J3*%
X131650000Y-109885000D03*
X131650000Y-126115000D03*
X125300000Y-109885000D03*
X125300000Y-126115000D03*
X138000000Y-109885000D03*
X138000000Y-126115000D03*
%TD*%
%TO.C,J1*%
X168375000Y-126115000D03*
X168375000Y-109885000D03*
X174725000Y-126115000D03*
X174725000Y-109885000D03*
X162025000Y-126115000D03*
X162025000Y-109885000D03*
%TD*%
M02*
